<svg xmlns="http://www.w3.org/2000/svg" viewBox="0 0 225.31 226.47"><defs><style>.cls-1{fill:#ffdfba;stroke:#465968;stroke-miterlimit:10;}</style></defs><g id="Ebene_2" data-name="Ebene 2"><g id="Bundesrepublik_Deutschland" data-name="Bundesrepublik Deutschland"><path id="BB" class="cls-1" d="M192.8,21.55l-.2,2.1,1.1,3.3h.8l.6.1.3.9.1.5-1,2.2-2.4,3.7-.5.2-.2.1-.3,2.1-.1,1V38l.3,1.1.1.4,1,1.4-.3,2.6-.1.5-.5,3.2-.7,2.3-.6,1-.3.3-3.3,3.4-1.2,1.2-1.7,1.4-.9.5-.8.3L179.9,59l-1.5,1.4-.3.9v.2l.3,1.7,1.1,3.9.3.7-.1,1.3-.7,1.2-.8,1.1-.5,1.1v.6l.1.2.4.6.2.2.7.3,1.8.1,3.7,1.5,7.8,5.1,1.5,1.5,1.6,1.9,1.7,2,.1.1.2.4.2.7,2.1,2,1,.7,1.8,1.2.8.4,1.4.7.9.4.3.1.5.1.3.2,1.7,1.2.4.5,2.3,3,.2.3.2,7.8-.1.7-.1.3-1.7,3-.8,1-1.6,1.1-.3.2-.3.4-.2.5-.1.5-.4,2.3-.1.8,1,1.6.3.6.3,2.7,1.5,5.6.1.3.2.2.9,1.1.2.2.4.2h.7l.3.1,4.7,1.2h.1l.3.2.2.3,1,1.4.1.2v.2l-.2,6.4-.1.4-.5.9-.8,1-.1.3v.3l.3,2.6.4.8.3.4.5.5.2.1.7.1.6.2.4.2.6.4.4.4.9,1.5v.3l-.4,3.3-.1.1-.4.7-1.4,2.4.1.1.3.6-.2,6-1,3.4-2.9,4-1.2,1-1.7,1.8-.4.4v1.3l.1.5.8,1.3.2.3.2.1,1,.3,2.9,6.3.5,1.1,1.5,1.7,2.3,1.7.3.2.7.6.6.7.7,1.4.5,4.2-.8,2.7-.9,1.4-1-.8-.8.8-.7,2.3-.1.3-.2.2-.5.5-.2.1-3.2.3-.5-.1-.4-.1-.1-.2-.4-.8-.1-.7-2.2-.9-6.9,2.5-.4.3-.1.4v.4l.1.5-.3-.2-3.4.4-4.3,2.5-2.9-1-4-.5-3.1.1-1.3-.2-.4.1-2.1,3.1-1.5,4.4-1.4,5.5-2.7,3.5-7.5,1.5-.3.1-2.8-.1-1.6.6-2.1,1-.8.6-3.1-.4-.5-.1-.8-.5-.3-.4-.5.7-3.3.1-2,.1H152l-2.9-.9-4.9-3-2.1-1.7-2.3-2.1-.6-.5-4.5,2.4-2.6,2.3v.1l.1,1.1-1.7.5-.5.1-2.3-.1-.2-.4-.2-.6-1.5-1.8.8-3.7.2-5.2-.2-.7-.2-.7-1.1-2.7-1.9-4.1-.4-.8-2.6-1.4-.2.3-.3.3-.7.5-.6-.3-2.4-3.9,6.5-4.3.5-.6,1.4-2.5v-.6l-.5-.9-.3-.3-.5-.4-3.3-11.7v-.5l1.7-.3v-.6l-.1-.6-.7-.7-.3-.6h-.9l.1.7-.3.2-2.1.8-2.4-.2h-.2l-.3-.2-3-3.1-4.9-2.6-1.1.4H105l-2.4-.6-4.9-2.8-.5-1.4h-.3l-1.8-.9-1.6-.9-.7-.4-2-.9h-.9l-.4.6-.2,1.4-1.8,1.3-.8.1-4-.6L75.5,162l-4.6-2.9-1.7-1.9-2.6-3.4-2.1-3.2-2.9-3.8,1.8-4.1-.2-4,.3-2.5.1-.5.6-1.8,1.2-2.6.1-.2.2-.1,1.2-2.4-.6-3.4-.4-2.9-.2-1.6.9-2.2.6-1,.3-.9-.4-3.3-5.5-1.9-.2.9v.1l-.3.5-1.1.3-1.2.2-.9-1-1.8-2.2h0v-.8l1.8-7.1.9-1.6.4.1h.4l1.6-1.2.4-3.7v-.6l-.3-.9-1.2-1.8-1.2-2v-.1l.4-4.4.3-1.1.7-1.3,1.5-.7.2-1.8-1.2-4.9-.1-.3-.6-.4-1.5-.7-1.5.7-.9.5-1.6.5-.8-2v-.7l.2-.6.1-.2-.7.7-8.2,1-.3-.1L39.7,73l-3.6-1.5-.4-.2-.2-.2-.3-.5-.1-.5.1-.2.2-.4.5-.6.5-.5.1-.2.1-.3v-.5l-.1-.3-.2-.3-5.2-3-.2-.1-.4-.2-.4-.1-.5-.1h-.2l-1,.6-.7.5-.3.1-.5-.1-.2-.1-3.6-2.8-.2-.3-.1-.3-.1-.4.1-.3.9-1.2.1-.2v-.2l-.1-.2-.2-.2-.2-.1-.2-.1h-.8l-1.4.6h-.6l-4.4-1.1-.6-.2-.6-.4-1.2-1.2-.7-.8-.4-.3-.4-.2h-.9l-2,.6-.4.1-.3.2-1,.8L5.7,57H5l-.3-.2-3-3.1L.6,52.25l-.1-.2v-1.8l5.6.3,2.8-2.2,3.4-.4.8.6v.3l.6.3,1.6.3,1.5.1.9-.6.3-1,.6-2.5-.7-4.1,3.9-3.5.6-.4h2.7l1,.1,1.7,1,.7,1.5.6-.1,5.5-1.2.2-.2v-.1l-.1-.3-1.1-1.9,3.2-.2,5-1.8.4-.2,3.7-2.7.4-.5-.2-1.8,2.1-3,1.5.3,1.7.2,1.5-.5L58.4,25h.3l3.9,3,2,.6.5.4.6.2.7.3,1.9,1,1,.8.5,1.4,2.5,2.8,3.3-.4.2-.2v-.5l1.8-.4,7.7.7.8.1L89.5,38l2.5,2.6.4.7,1.2.1.8-.3,1.2-.4v-.1l.1-.1,1.8-.6,7.3-.2.7.2h0l.2.5v.2l-1,.6-.9.7-.3.4v.1l.1.1,2.1.9h.2l.3-.2,7-7.6.4-.4,2.3-1.1h.2l1.9-.3.3.6.2.6.8,1.8.2.2,1.5.2.5-.9.1-.7v-.5l.1-1.2.2-.8.4-.5,1.8-1.6,1.1-.5,3.5.1.2.1.4.5.1.2.1.9,1.1,1.6.4.1.7-.3,4.7-5,2.1-2.9.1-.1v-.1l-.3-1.8-.2-1.3.5-1.6,1.2-2.8.2-.5,6.6-6.3,1-.9L149.3,9l2.7-.2,2.8-2.4-1.4-1.2-.2-1.4v-.3l.3-1.9.1-.3.4-.6.5-.1,5,5.8,1,3.3,1.5,3.1,1.6.7.6-.3,3.4-.6,2.7.4,3.9-.1.7-1.4,6.3.4.7.5.4.7.2,2.8v.5l-.5,2-.1.5-.4,1-1,1.6-.8,1-1.1,1.3-1,1.1-.7.7-1.6,1.9-.5.8-.1.5-.2,1.2,1.1.1,5.8.2,2.5-.4.8-.3,2-2.8.6-1.8.2-.9,5-2.1h.3Zm-59,73.1-.6,1.1-.7.9-.5.4-.4.2-.4.1h-.7l-.9-.1-1.1-.2-5.6.2-1.1,2.2v.1l.1.3.5.6.4.3.1.1v.1l-.1.4-1.1-.1-.5-.1-1.2-.5-.5-.3-.5.1-1.7,1.1v.4l-.4,6.2.1.6,1.6-.3,1.6,1.1-2.2,2.9-.4.3-.5.7-.3.5v1.5l.5.5.4.7-.6,1-.5.5-1,.5.2.8.2.2,2.1,1.3,2,.1.6-.1-.5-.1.1-.6,2.2-1.4,1.6-.6.2-.1,1.2-.1,3.4.7,1,1.3,1.9-1,2.9,2.9,2,.1-.2-3.2v-.2l.1-.1,1.6-.8.7-.3.5-.2.8,1.9,3.8,1.2,7.1,2,1.3.3,1.6-.5.4-.7.1-.4-.1-.3h-.2l-.5-.2v-.3l1.8-1.5.7-1.7.8-2.5-1.5-1.6-.9-.1-2.5-1.7-1.6-.5-.8-3.2-1.6-3.5-3.6-3.8-4.7-8.7-.9-.5-.8.6-.6.8-.6,1.4-.4,1.2-.6.2-1.1-.6Z"/></g></g></svg>