<svg xmlns="http://www.w3.org/2000/svg" viewBox="0 0 42.55 32.91"><defs><style>.cls-1{fill:#ffdfba;stroke:#465968;stroke-miterlimit:10;}</style></defs><g id="Ebene_2" data-name="Ebene 2"><g id="Bundesrepublik_Deutschland" data-name="Bundesrepublik Deutschland"><path id="BE" class="cls-1" d="M19.28,3.69l.5.5,1.1.6.6-.2.4-1.2.6-1.4.6-.8.8-.6.9.5,4.7,8.7,3.6,3.8,1.6,3.5.8,3.2,1.6.5,2.5,1.7.9.1,1.5,1.6-.8,2.5-.7,1.7-1.8,1.5v.3l.5.2h.2l.1.4-.1.4-.4.7-1.6.5-1.3-.3-7.1-2-3.8-1.2-.8-1.9-.5.2-.7.3-1.6.8-.1.1v.2l.2,3.2-2-.1-2.9-2.9-1.9,1-1-1.3-3.4-.7-1.2.1-.2.1-1.6.6L5.28,30l-.1.6.5.1-.6.1-2-.1L1,29.39l-.2-.2-.2-.8,1-.5.5-.5.6-1-.4-.7-.5-.5v-1.5l.3-.5.5-.7.4-.3,2.2-2.9-1.6-1.1-1.6.3-.1-.6.4-6.2v-.4L4,10.19l.5-.1.5.3,1.2.5.5.1,1.1.1.1-.4v-.1l-.1-.1-.4-.3-.5-.6-.1-.3v-.1L7.88,7l5.6-.2,1.1.2.9.1h.7l.4-.1.4-.2.5-.4.7-.9Z"/></g></g></svg>