<svg xmlns="http://www.w3.org/2000/svg" viewBox="0 0 206.99 230.17"><defs><style>.cls-1{fill:#ffdfba;stroke:#465968;stroke-miterlimit:10;}</style></defs><g id="Ebene_2" data-name="Ebene 2"><g id="Bundesrepublik_Deutschland" data-name="Bundesrepublik Deutschland"><path id="BW" class="cls-1" d="M112.81,22.27l1,.4h5.1l1.3-.2.6-.1L122,22l.6-.3,2.4-3.1-.1-.2-.6-.8.7-1.1,1.3-1.8,3,.4,2.3.7,1.5-.3.7-.8.2-.5-.5-.5.8-3.3-.4-1.7-1-1.8-.9-.2-.4.6.1.5v1.6l-.3.1-.7.1-.6-.1-.9-1.3-1.5-2.5-.5-1.9v-.6l.1-.2.3-.1.4-.1,2.3-.3,5.6-.3,1.2.5.7-1,.4-.5.2-.2,1.3-.1.2.1.2.2.3.3.1.2V2l-.2.6V3l.1.2.2.4.3.2,2.6,1.7.3.1h.2l.1-.1,4.3-4.1,1.2-.6.1,1-.6,6-.1.3-.6.3-.1.1-.4,1.4.5.7,1.4.8.5-.1.9-.4,2.7-1.5,4.2-1.4,1.1-.4,1.7,1.7.7.7,2.4,8.4.2,1,1.7,2.7.3-.1h.5l.3.1.1.3.7,2.2v.1l.2,1.1-.2,4.2v.1l-.2.4-.4.4-.1.7.8.8.2.1,1.5.4,4.1-.3.4-.1,2.2-2.4.2-.2.5-.9-.6-.2-.7-.6-.2-.3.1-.1,1.5-1.4.3-.1,1.1.2.7,1.1.8,1.8.3,1.4-.4.4-.2.5v.2l.1.6,1,1.3.1.1,1.2,3.9,1.1,2.3.6,1.7-.1.2-.3.5-.7.3-2.3.1-.3.6-.3,3.5v.3l.1.3,2,4.3.5.9-1,2.7-.2,6.2v.2l.3.3,2.6,1.8,1.5.8,1.7.7,2.1,3.7,1.3,6.7-.4.2h-.1v.7l.2,1,4.2,1.8,6.1,4.5.1.4.7,2,1.3,1.3.1.1.5.6.4,1.9-.1,6.2-.3,5.1v.1l-1.2,3.1-.7.3.3,3.3h.2l2.5.8.1.9.7,2.6.6.6h.2l.3.6-.3.4-1.5,1.6-2.2.7h-1l-.1-.2.1-.2.4-.3,1-2.2-.1-.3-.1-.2-.3-.3-1.6.1-4.8,1-.6-.2-4-1.3-.9,2.4-.1.2-.1,1.3.6.8L192,119l1.3,1.8,1,5.7.1.6-.1,3.9-1.1.6-.7.1h-.6l-.9-.4-.5.1-.2.1-1.6.8.2.5.2.6-4.7,4.2-2.3.5-1.1-1.4-.9-.7-3.3,1.9-1.6.1.3.5.2.7-.3,1.7-1.2,2.2-.1.2-1.5,3.5.4,2,.8,1.5,2.9,4.5,1,.9,1.2,8.9.1.8.3,1.8.3.7v.5l.9,2.8.2.6.1.1.9.9.8.7.2,3.4.1,3-.3,2.4-.2.7-.6.6-.4.7-.2,1.9-.1,1-.7.1-.7.2-.3.2-.2.2-.1.2-.1.5v.6l.1.6.2.4.2.3.3.3.8.5-.4,1.4-.2,1.8v.7l.1,3.5.5,2.5.5,1.1.5.6.4.3.3.8-1.3,1.2h-1l.1,3.7,2.5,6.2v.6l-.7,2.2-1.1,1h-.3l-.7-.1-.4.3-.6.8-.2.4-.4,1.2.1.3-.9-3.5v-.1l-.3-.6h0l-2.6-.5-1.3.2-.2.1-.2.2-1.1,1.3-.3.5-5.5.1-4.8.3-.1.1-5.5,5.6-3.1.1-.4-.1-.3-.2-.1-.2-.1-.4-2.4-.2-1.2.8-2.7,2H143l-.8-.1-.3-.2-.3-.2-1.4-1.6-.8-1.9-.1-.9-.4-.8-.7-.9-.6-.5-4.9-1.6-1-.3h-.6l-.4.1-1.3.2h-.2l-.5.3-.5.2h-.4l-.3-.1-.9-.5-2-1.1-2.7-1.8-1-.9-.8-.8-.5-.9-.2-.5-.1-.9.1-.2V211l-.1-.1-.6-.6-7.6-5L109,204l-.3-.1-.4-.6-.3-.2-1.5-.3-.4.6-.2.5v.1l.1.2,2.5,2.6.8.6.6.4,3.3,2.2h.1l.5-.1h.3l1.7,1.4,2.6,5.4.4,1.6-1.6,1-1.4.2-2.5-1-2.3-1.2-.4-.2-.5-.1-2.5-.6-.4-.1-1.8-.2h-.3l-.4.1-1.2.5-1.2.6-.4.3-.5.5-.8.5-1.2.6-2.9.8h-.2l-1.3-.8-4.6-4-1,1.8h-.3l-.6-.2-3.8-1.7-.1-.3-1-3.6.2-.9.6-.7-1.1-1.9-1.6-1.4-2.3-.7.3,1.1-.4.6-.2.3-.9.6-.3-.1-.6-.9-.3-3.4-2.8-.6-.8,1.1-.4,1.2-3.2.7-1.5.3-1.1.9-1.2,1.5-3.2,5.6-.5,2v.1l.4.7,4,2.9.2.1,3.9-1.6-.1-.6.4-.3,1.3-.6.6-.1,2.6-.2h.2l.4.1,1.5,2v.3l-.4.9-1.5,3.1-.9.9-.6.5-1-.2L73,224l.2-.7.3-.1.1-.2-.1-.3-.1-.2-.7-.8-1.3-.7h0l-1.1-.3-3.7,3,1.4,1.7.4.6v.1l-.6.4-1.5.5-1.8.5-.5.1-6.7-.6-.4-.1-.1-.1-.3-.1-1.6-1.5-.2-.2-.1-.3v-.4l.2-.9v-.1l-.2-.2-.6-.3-1.9-.5-3.2-.6-.5-.1-.3.1-.2.1-6.2,3.6-.3.3-.1.2-.1.3-.1.9-.2.4-.4.3-.3.1-4.6.6h-.2l-4.2-.9-3.4-1.4-1.1-1.6-.2-.1-.4-.2h-.2l-3.5.1-1.4,1.4-.2.4-1,1.1-.5.3-2.7,1-3.8,1.1h-.3l-.8-.1-.8-.3-.1-.1-1.2-1.3-.7-1.1.3-.1.5.1,2.5-1v-.3l-.2-.9-.4-1-5.8-1.5-4.4-5.7-.2-.3-.2-.4-.1-.4-.4-2.8.1-.4.1-.2,1.6-1.2.2-.3.3-.4.2-.6.1-.7v-.3l-.1-.5L2,205l-.1-.4.1-.8.1-.4.9-2.2,1.2-2.9.2-.7v-.4l-.1-.6-.3-1-.1-.4v-.7L4,194l1.8-4.8,1.8-2.5.5-.7.5-.9.1-.5V184l-.3-1.2-.3-.6-.5-.8-2.1-2.7-.2-.2.1-.3v-.4l.2-4.3.1-.4.6-3.2v-.5l.1-.3,1.6-3.4.2-.3,2.2-2.9,2.4-3.2.2-.4.3-1.1.7-2.3.7-3.7.1-.3.2-.5.4-.5.5-.4,1.7-.6.5-.3.2-.2.1-.2.2-.4.1-.3v-.3l-.7-3.9-.1-.9v-.6l.1-.7.1-.7.2-.6,2.1-5.2,2.3-4.7.3-.4.3-.7.1-.5v-4l-.1-.9-.2-1.1v-.8l.1-.4,2.7-5.2.1-.2.2-.2,1.2-.5,1.5-.8.5-.4,4.8-5.5.7-3.6.1-.3.1-.1.5-.2H36l2.5-.6,3.5-2.5.8-.7.7-.9.4-.7.2-.5.2-.8.3-1.2.4-1.3.6-1.7.4-.9.4-.9.9-1.6,3.4-5.3.3-.3.3-.2,2-.6.4-.2,1.6-1.2,1.1-.8.4-.4.3-.5.3-.5.4-.9.1-.3.1-.3.2-1.4.2-.9.5-1.2.4-.7.7-1.1,1-1.1h0l.7-.8.4-.7.2-.5,2.4-10.3-.2-1.8h-.3l.1-.7.2-.6.3-.5.4-.4.5-.4.6-.3,1.4-.9.5-.4,1.8-2,1.4-.7.1-.2.1-.4-.1-.5-.2-.4-.3-.3-.2-.1-1-.3-.2-.1-.2-.2-.1-.4V48l.1-.3.2-.3.5-.5.4-.3.4-.3.5-.5.6-.9.4-.8.2-.9v-.6l-.1-.9-.2-2.3.8-2.1V37l-.1-.3-.3-.4-.4-.2-.6-.1H70l-.6-.1-.2-.1-.3-.2-.2-.2-.1-.2v-.4l.1-.3.2-.2.2-.2-.4-3.2-.1-.6-1.1-4.4-.4-.8-.1-.3V24l.1-.5.4-.7.1-1.1.2-.1,1-.5.3-.1h.3l1,.1.6.5,1.5,1.3,2,2.6.4,1.2.6.9.9.7.5.2.3.1h.9l1.7-1.4.7-1.1.1-.5v-1.4l-.9-4.1-.6.1-.2-.4V19l.3-.6,1.7-.5,3.9-1,1,.2.1.5-.5,1-.1.1-.4-.2-.1-.2-.4.2,1.9,7.6,1.5,1,2.3,1,.5.2,6.5,1.3h2.4l-.2.6.2,1.2-2.3,2.1-2.3.8L93.11,38l-.4.9.3.9.6.6.5.1,1.9.1h.1l.3-.2,6.5-5.9-.6-.8-.7-.7.2-.6.4-.7,1.6-1.8,1-.7.2-.1,5.6-1.8,1.1.3,1.5,1.7.9-.2.3-.4v-.4l-.6-1.4-.4-.3-1.6-.9.5-.4.1-.2.4-1-.1-.1ZM83.71,215l-.7-1.9-.2-.2-2.5.1.2,2.2.6.5,2.1-.2.7-.1Z"/></g></g></svg>