<svg xmlns="http://www.w3.org/2000/svg" viewBox="0 0 328.65 337.81"><defs><style>.cls-1{fill:#ffdfba;stroke:#465968;stroke-miterlimit:10;}</style></defs><g id="Ebene_2" data-name="Ebene 2"><g id="Bundesrepublik_Deutschland" data-name="Bundesrepublik Deutschland"><path id="BY" class="cls-1" d="M193.65,12.11l.9.2.7.6,2.6,2.6v.4l-.2,1.7-.3,1.8.4.3,1.2.2,4.5,1.3,2,.8.5.6,1.5,1.5,1.2,2.7-.1.2-.1.1-.7.6-.9.2-.4.4-1,1.2.1.3,1.3,1.1,3.3,1.7.3.2,1.1,1.2,1.4,1.7,1,2.1-.1.4-.2.6-.7.7-.3,1V41l.2,1.6.2,1.2.1.2.5.6.1.1.7-.2.5.1,1,.8,1.5,1.6-.3,2.1,3.9.6,3.3,3.4,4.1,2.4h1.7l1,.2,1.4.8.6.9,2.8,4.8-.1,3.5-.3.3-.6.7-2.2,4.2-.6,1.7-.3,3.4-.2.7-4.3,3v.5l.4,1.4.5.8,1.9,2.7.2.2.2.1.5.1,4.5,1.3.2.1.4,1.6.8,5.3,2.7,5.9,1,1.4.4.3-.3.4.9.6,1.2.4.5.1.1-.4.1-.1h.3l.3.5.1.2.1,1.4.1,2.1v.7l-.6.8,1.7,2.6,6.8,5.4.3,1.3-.2.7,1.5,2.8.5.3,1.1.4,5,.7h.7l.1-.1-.2-.6-.4-.5-.1-.7.6-.1.8.1,3,.5.3.1,1.5.9,2.1,1.9,2,2.6,5.8,7.8.9,1.2,1.7,1.5.9.7.3.1h.4l.1,3,.9.9,1.1.7.9.5,1.7.7.6-.2.7-.3,1.4-.3h.4l.5.2,2.5,1.8,1.4,1.1,3.2,3.6.6.9.7,2.3,1,4.3,1.1.7,4.4,2.9h.2l.6-.1v-.9l-.1-.4-.1-.5v-.9l1.5-.6,3.4.1.3.2.2.2,2.5,2.8,1.1,1.3.8,1.7.7,1.5,1.1,1.3.3.1h.9l1.9-.1.3-.2.4-.4h.6l5.8,8.5,1.3,2.7-.6,2.2-.7,2.1-.9,1.6L327,185l1.2,5.7v1.6l-1.3,4.5-4.6,6.5-.2.2-1.4-.4-2.9-1.5-.3-.2-5-3.2-5.4-2-.4,1.6-.2.3-.8.9-1.1.9-.5.2-2,.6.8.9.1.1.7,2.7v.2l-1.3,3.9-.3.5-.3,1v.6l.8,1.2.1.5v.3l-.1.4-1.3,5-.2.5-.2.3-.3.3-5.1,5.2-.5.4-3.9,2.6-.4.2-.5.1-5,.1-2.8,1.6-.5.2-.7.1h-1.8l-.6.1-3.9,2.1-.3.2-.3.3-.2.3-.3.7-.2.4-2.3,2.7-.4.3-.4.2-.4.2-.3.1-1.9.1-2.9.5-.2.1-.3.2-.2.3v.9l-.1.3-1,2.1-.9,1.1-.2.2-2.2,1.7-2.6,2.1-.5.6-.1.2v.3l.3,1.8.2.8.3.7.6.8,2.9,2.4,2,1.6.8.8.4.5.3.5.1.3.9,3.6.2.5.3.3,2.4.4.5.2.2.2.9,1.3,2.3,3.5,2.8,5.1.2.5.1.5-.1.3-2.6,4.6-3.7,7.5v.2l.1.2.5.6.9.6,3.3.29,1-.09.3-.1.7-.5.2-.2.1-.2-.1-.1.2-.4.2-.1h.5l2,1,.3.2,1.5,1.9,2.1,5.3.1.5-.3.4-.3.3-1.3,1.5-1.8,2.9-.1.7-.6,4.5v.1l.1.2.3.3.3.1.3.2.1.3.1,2.3v.7l-2.7,3-.2.1-.2-.1-2.6-1.1-.8-.4-2.9-1.6-7.7-5.2-.7-.7-.8-1.2-.3-1,.1-.4.7-1.9,1-1-2.7-5.6-1.5-.4-3.9-1.1h-1.2l-.8.2-3.9.9-.3.1-.5.7-.9,1.9-4.8,2.5-.9.1-2.4-2.5-1.8-2.4-.1-.3-5.2-.6-1.8-.7-.2-.2.2-.5-4.8,1.8-1.2-3.6.4-.6.4-1.1-.1-.5-.4-.6-.5.2-4.3,4.2-.1,3.5,1.2,2.5.3,1,.5,1.9v.2l-.1.3-.1.2-.2.1-1.4.3-3.7-.1-3.3-.3-1.5-.9-2.8.8-3.6-.4-3.9.5-3.2,1.2-1.2,2-.2.1-1-.1-2.8-.5h-9.7l-1.2-.2-1.8,1.1-.1.1-1.1,2.5-.1,1.1v.4l.1.3.1,1.4-1.1,1.1-.2.1-4.4,1-3.5-.3-.7-.2-.5-.6-.2.1-.2.2-1.4,1.6-.2.4-1.7,2-5.5,4.9-.6,1-.2.4-.3,1-.4.5-.8.5-.2.1-2.9.3h-.2l-.2-.2.1-.4,1.1-1.9.9-.8-.2-.4-.1-.1-3-.1-3.4,1.3-.4.2-1.3.7-3.5,1.7-5.3.3h-.7l-1.2-.2-.6-.3-.1-1.2.1-.5.1-.1.6-.1.3-.3-.1-.9-1.6-1.9-2.3-2.4-3.3-.7H129l-.5-.2-.1-.4.1-1.4.4-.4,2-1.5-1.4-2-2.2.3-3.9,1.5-2.4-.5-4.9-2-.2-.6v-.3l.1-.2-.1-.3-5.1-.8-1.2-.1-.8.9-.5.9v.2l-.7,1.6h-.3l-3.1-.1-2.5-.5-2-1.3-.5-.3.4-.6.6-.8.2-1v-.8h-.3l-2.2.3h-.1l-.4.7.1,7.6.7,1.8.2.2.2.1.4-.2.7.3.5.5.1.8.3,3.9-4,5.4-4.8,6.2-1.5,1.4-3,1.8-2.8,1-4.5.8h-.3l-.1-.4v-.5l.2-.9.2-.8,2.6-6.1.6-.8.7-1v-.1l-.1-.9-.5-.7-.2-.1-3.2-.3-.9.7v1.5l-.3.3-4.6,1.5-1.6-5,.5-1.1.6-.3.1-.1.7-1.1-.9-1.6-.9-1.2-1.9-2.2-2.1-.8-.9.2h-.5l-.1-.1-.4-.4-2.1-3.6v-1.8l.2-.8-.2.2-2.2,1.2-.8.3-3.4.1-4.1-1.9v-.2l.1-.4.1-.1h.1l.2-.2.2-.3.1-1.9-.3-.8-1.5-.9H53l-1.6.1-.8.6-.6.9-2.5,3.4-3.8-1.2-3.2-1.3-.9-.6-.3-.8,2.7-2,1.2-.8,2.4.2.1.4.1.2.3.2.4.1,3.1-.1,5.5-5.6.1-.1,4.8-.3,5.5-.1.3-.5,1.1-1.3.2-.2.2-.1,1.3-.2,2.6.5h0l.3.6v.1l.9,3.6-.1-.3.4-1.2.4-.4.6-.8.4-.3.7.1H75l1.1-1,.7-2.2v-.6l-2.5-6.2-.1-3.7h1l1.3-1.2-.3-.8-.4-.3-.5-.6-.5-1.1-.5-2.5-.1-3.5v-.7l.2-1.8.4-1.4-.8-.5-.3-.3-.2-.3-.2-.4-.1-.6v-.6l.1-.5.1-.2.2-.2.3-.2.7-.2.7-.1.1-1,.2-1.9.4-.7.6-.6.2-.7.3-2.4-.1-3-.2-3.4-.8-.7-.9-.9-.1-.1-.2-.6-.9-2.8v-.5l-.3-.7-.3-1.8-.1-.8-1.2-8.8-1-.9-2.9-4.5-.8-1.5-.4-2,1.5-3.5.1-.2,1.2-2.2.3-1.7-.2-.7-.3-.5,1.6-.1,3.3-1.9.9.7,1.1,1.4,2.3-.5,4.7-4.2-.2-.6-.2-.5,1.6-.8.2-.1.5-.1.9.4h.6l.7-.1,1.1-.6.1-3.9-.1-.6-1-5.7-1.3-1.8-1.2-1.6-.6-.8.1-1.3.1-.2.9-2.4,4,1.3.6.2,4.8-1,1.6-.1.3.3.1.2.1.3-1,2.2-.4.3-.1.2.1.2h1l2.2-.7,1.5-1.6.3-.4-.3-.6h-.2l-.6-.6-.7-2.6-.1-.9-2.5-.8h-.2l-.3-3.3.7-.3,1.2-3.1v-.1l.3-5.1.1-6.2-.4-1.9-.5-.6-.1-.1-1.3-1.3-.7-2-.1-.3-6.1-4.5-4.2-1.8-.2-1v-.7h.1l.4-.2-1.3-6.7-2.1-3.8-1.7-.7-1.5-.8-2.6-1.8-.3-.3v-.2l.2-6.2,1-2.7-.5-.9-2-4.3-.1-.3V125l.3-3.5.3-.6,2.3-.1.7-.3.3-.5.1-.2-.6-1.7-1.1-2.3-1.2-3.9-.1-.1-1-1.3-.1-.6v-.2l.2-.5.4-.4-.3-1.4-.8-1.8-.7-1.1-1.1-.2-.3.1-1.5,1.4-.1.1.2.3.7.6.6.1-.5.9-.2.2-2.2,2.4-.4.1-4.1.3-1.5-.4-.2-.1-.8-.8.1-.7.4-.4.2-.4v-.1l.2-4.2-.2-1.1v-.1l-.7-2.2-.1-.3-.3-.1h-.5l-.3.1-1.7-2.7-.2-1-2.4-8.4-.7-.7-1.7-1.7-1.1.4-4.2,1.4-2.7,1.5-.9.4-.5.1-1.4-.8-.5-.7.4-1.4.1-.1.6-.3.1-.3.6-6-.1-1-1.2.6-4.3,4.1-.1.1h-.2l-.3-.1-2.6-1.7-.3-.2-.2-.4-.1-.2v-.4l.2-.6v-.3l-.1-.2-.3-.3-.2-.2-.2-.1-1.3.1-.2.2-.4.5-.7,1-1.2-.5-5.6.3-2.3.3-.4.1-.3.1-.1.2v.6l.5,1.9,1.5,2.5.9,1.3.6.1.7-.1.3-.1v-1.6l-.1-.5.4-.6.9.2,1,1.8.4,1.7-.8,3.3.5.5-.2.5-.7.8-1.5.3-2.3-.7-3-.4-1.3,1.8-.7,1.1.6.8.1.2-2.4,3.1-.6.3-1.2.4-.6.1-1.3.2H8.05l-1-.4-.9-1.6.8-7,1.4-3.7.5-.2,1.6-4.3-1.2-5.3-.2-.1-.2-.1-.8-.2h-.4l-4.4-4.4L3,73l-.1-.4-.1-1.4v-.6l.2-.1.9.1-.7-.9-.1-.2-.4-3-.1-2.1-.1-2.9-.4-3v-.2l-.3-.5,1.6-.9L3,53l-.1-.3-.3-.3-.1-.1-.5-.2h-.6l-.3.1-.5-1.1.6-1.3.5-2.5.7-1.2.5-.6.1-.1,13.5-3.7,9.7,1.9.3.1.1.1,1.9,4.3.5.4h.2l1.3-.1,5.1-.9.4-1.2v-.8l-.4-1-.2-1.2-.7-4.1.4-3.4,1.2-2.5,1.1.4,3.1.8h.8l1.6-.1.1-.1.1-.4.9-2.4.7-1.3.3-.5.1-.2,1.7-.6h.8l.7-.3,1.6-1.5.8-.8.4-.8.1-.4.1-1.1-.1-1.6-.3-.6-.7-1,.7-.6.2-.3.6-2.1.4-1.6,3.6-1,.8.6,2.2.9,1.5-.2,1.2-.5,1.2-.7,1.2-1,1.6-.9,3.5-3.8.9-1.4.5-1.3.3-1.6v-.8l.3-.1.4-.2,1-1,1.8-2,6.6-.7.5.1L83,3l1.5,2,4.7,2,.5.4.5.5,2.4,5.1.4,2.4V16l.5.8h.2l1.9.2.9-.4.9-.4.3,1,.3,1.2,2.3,2.5,4,1.5,3,.7-.3,2.8-.3,3.6.7,2.9.4,1.2.2.4,1.8.4,5.2,1.9h.3l.2-.1.4-.8-.1-1.8-.1-.1v-1.7l.1-.2.3-.2.6.1,2.4.6,2.8.6h.3l.7-.2.7-.5.1-.2.2-.6-.1-1.4-.4-.5-.6-.3-1.3-.4-.6-.1-.2-.1-5.5-3.9-.4-.3-.1-.4-.2-3.1.2-.9,7.5-3.1h7l.6.6,1.1,2,1.3,1.5,3.6.6.4.1,1.4-.5,1.2-.5.4-1.2.1-.1.8-.2h.9l1.6,1.4,1.4,2.4v.6l-.4.1-.6.4-.3.3-.4.5-.1.6.1.5v.1l.7,1,2.2,2.1h.8l.1-.1L147,27l3.1-.5,2-6.9v-.1l-1.2-7.6-.3-.8-.4-.2-.7-.5-.1-2.1v-.2l.1-.6.2-.3.4-.1.5.1.1.2,1.5-.7,2.2-1.8.2-.8,1.1-1.2.2-.1,1.6-.2,3.5.7.3.2.3.5.6.8v.1l-.3.7-.1.1h-.4l-.4.7-.1,1.6v2.1l.1.6.1.2,2,1.2,1.8-.2.6,2.2.7,1.2,1.7,1.9.6.3,1.9-.6.4-.4v-.2l.2-.8.2-.3.2-.1,1.3-.3.4.2.3.2.4.5.6.5.3.2h.2l12.5-1.7,4.1-1.5Z"/></g></g></svg>