<svg xmlns="http://www.w3.org/2000/svg" viewBox="0 0 32.85 62.48"><defs><style>.cls-1{fill:#ffdfba;stroke:#465968;stroke-miterlimit:10;}</style></defs><g id="Ebene_2" data-name="Ebene 2"><g id="Bundesrepublik_Deutschland" data-name="Bundesrepublik Deutschland"><path id="HB" class="cls-1" d="M5.2,9.5l.6-.4L6,8.6l.1-.3V7.5L6,7.2l-.1-.3L3.8,3.1,2.9,1.8,3.9.6,4.8.5l5.4.3,1.7.3.1.1-1.1,5,.9,3.9-.1.5L9.1,13.3H8.9l-1.8-.2-.3-.2-.2-.2.4-.5.1-.2v-.2L5.7,10ZM31,49.9l-1.4-1.7-.7-.5h-.3l-1.1.7-4.7-.1L19,46.4l-4.2-2.1-6.5-.8L.8,39.4l-.3-.9v0l.2,1.3.4.9.3.6.7,1.1,1.6,1.2,2.4,1.1.8.3.9.1.8.2.4.3.3.5,1.6,4.2.1,1.3.9.6,2,2.1.5.7.1.6.1,2.6.5.5.5.5.3.1,1.1-.4.4-.1h1.3L24,60.7l3.1,1.2,3.3-2.8.1-2-.4-4.8-.8-1.2.1-.1.1-.1,1-.4,1-.4Z"/></g></g></svg>