<svg xmlns="http://www.w3.org/2000/svg" viewBox="0 0 163.51 232.32"><defs><style>.cls-1{fill:#ffdfba;stroke:#465968;stroke-miterlimit:10;}</style></defs><g id="Ebene_2" data-name="Ebene 2"><g id="Bundesrepublik_Deutschland" data-name="Bundesrepublik Deutschland"><path id="HE" class="cls-1" d="M143.17,29.32l-.2.9.1,1,.6,2.2,1.4,3.4,1.2,1.5,3.4,1.2,1.9.8.9,2.9,4.6,2.3,1.7.6.8.5.6.5,1.3,1.3,1.2.3.3.6-.3.8-.6.4-.4.2-.3.3-.4,1.3v.3l.4.5h.2v2.6l-.2.2h-.6l-.4-.7h0l-.3-.4-.4-1.3-1.1-1.1L156,53l-.5.6.1.3,1.3,2.9.6,1.2.2,4.3,1.8.7.9.6.2.2.5.5.5.9-.2.5-.6,1.2.1.2-.5.7-.3.2-.5.2h-.2l-.2.2-1.7.2-.4.1-.5-.1-.3-.2L156,68l-1.3-.7-2.3-.3-1.4-.1-.9.1-.3.1-.1.1-.1.3-.6,1.3,1.5,4.8,1,5.9v.8l-1.6,4.1-.7,1.2h-1.4l-1.6-.2-.5.3-1.1.9-.1.3-.4,1.8v.6l.4.7.1,1v.5l-.1.1-.3.1-1.3.4.9,1.1.2,1.5V95l-.5,1.2-1.2,2.7-1.4,1.7-.7,1-.3.4-.1,2.7.1.9,3.3.6,1.1.2.9-.2.5-1.2-1.2-1.5v-.6l.2-.3,2.4-1,.5-.1,2.2.1,1.3.1.3.2.8,1.4.7,2.1-1.8,1.5-.2.2-.4.6-.2.4.2,9.7v.8l-.3,1.6-.5,1.3-.9,1.4-3.5,3.8-1.6.9-1.2,1-1.2.7-1.2.5-1.5.2-2.2-.9-.8-.6-3.6,1-.3,1.6-.6,2.1-.2.3-.7.6.7,1,.3.6.1,1.6-.1,1.1-.1.4-.4.8-.8.8-1.6,1.5-.7.3h-.8l-1.7.6-.1.2-.3.5-.7,1.3-.9,2.4-.1.4-.1.1-1.6.1h-.8l-3.1-.8-1.1-.4-1.2,2.5-.4,3.4.7,4.1.2,1.2.4,1v.8l-.4,1.2-5.1.9-1.3.1H109l-.5-.4-1.9-4.3-.1-.1-.3-.1-9.7-1.9L83,158.72l-.1.1-.5.6-.7,1.2-.5,2.5-.6,1.3,1.3,1.1.3-.1h.6l.5.2.1.1.3.3.1.3.4,3.9-1.6.9.3.5v.2l.4,3,.1,2.9.1,2.1.4,3,.1.2.7,1-.9-.1-.2.1v.6l.1,1.4.1.4.3.3,4.4,4.4h.4l.8.2.2.1.2.1,1.2,5.3-1.6,4.3-.5.2-1.4,3.7-.8,7,.9,1.6-.2,1.6.1.1-.4,1-.1.2-.5.4,1.6.9.3.3.6,1.4v.4l-.3.4-.9.2-1.5-1.7-1.1-.3-5.6,1.8-.2.1-1,.7-1.6,1.8-.4.7-.2.6.7.7.6.8-6.5,5.9-.3.2h-.1l-1.9-.1-.5-.1-.6-.6-.2-.8.4-.9,1.8-3.7,2.3-.8,2.3-2.1-.2-1.2.2-.6h-2.4l-6.5-1.3-.5-.2-2.3-1-1.5-1-1.9-7.6.4-.2.1.2.4.2.1-.1.5-1-.1-.5-1-.2-3.9,1-1.7.5-.3.6v.8l.2.4.6-.1.9,4.1v.5l-.1.5-.7,1.1-1.7,1.4h-.9l-.3-.1-.5-.2-.9-.7-.6-.9-.4-1.2-2-2.6L46,212l-.6-.5-1-.1h-.3l-.3.1-1,.5-.2.1-.5-1.2-1.6-2.4-.5-.9-1.6-5.1-.1-.5.2-1,.1-.2.2-.4.1-.1.6-.5.6-.3.5-.2.7-.3,1.5-.3.4-.2.4-.2.5-.4.4-.6.1-.2.1-.3.6-1-.3-2.3-2.8-2.9-.5-1-1-1.4-.3-.5-2.2-5.6-.2-.8v-.4l.1-.5.1-.3.3-.6.3-.6.1-.3v-.5l-.1-.5-.6-1.9v-1l-.5-1.2-.5-.8-.4-.6-.7-.8-1.3-1.2-.8-1.2-.4-.6-.7-.8-1.2-1.1-.6-.2-1.9-.4-1.1-.1-.9.1-2.5.8-4.1,1.9-7,2.7-.3.1-2,.3-3.3.1h-.4l-.3-.1-.5-.3-5.4-7.6-.7-1.9.9-.2,2-1.1,4.2-3.5.4.1,2.3.6.3-.4.4-3-.1-.4-1-.9-.8-.6-.5-.3-.4-.5-.1-1.3.1-.1,1.5-2,.6-.4.3-.2,4.3-1.9,1.8,1.1,1,.2h.3l1.7-1.9-.1-.2-.4-.3-1.7-1.6-.2-.5,1-1.3.9-.3.7.1,2.1.9,2-1.2v-1.9l-.1-.4-.7-2.2-.1-.2-.2-.4-2.7-4.9-5.3-3.5h-.5l.3-.8,1.8-4.9-.7-1-.5-1.3v-.3l.5-2.4.5-1.1,2.4-2.8.4-.1.6-.2h.3l1.2.5.5,1,1,.3,1.1.2.8-.1.2-.4.8-1.9.3-.7.7-1.8.4-1.2v-.6l-1.2-.7-.4-.2-.1-.3-.9-4.9v-.9l.1-.5.1-.4.9-1,.7-1,2-3.7.1-.3-.2-1-.8-1.1-.8-1.5-.4-.8-.4-1,9.5-9.3.2-.2h1.2l.2.1,4.1,2.2.2.1.5-.1.1-.1,1.1-1.2,4.3-6.5.6-2.6.1-.1.4-.2.1-.1h.6l.2.1L49,70v-.2l.1-.2.9-.9,1.4-1.6,1-.9.4-.4.5-.7-.4-.9-.7-1.5-1.1-3.3-.1-.3v-.2l.4-.6.5-.5.8-.6.1-.1,1.3-.5.1-.1,2.8.2,1.7.3.8.3,1.1.3H61l3.2-1.2,2.8-6.2.3-.7.1-.4-.2-2-.8-6.4-.1-.3-.9-1.2h-.9l-.7.1-4.6,2.1-1,.7h-.9L57,42l-.2-.2-2.1-2.9.6-.9,2.6-3.8,1.1-1.4,1.1-.7,3-1.9,5-1.5,3.8-1,4.2-.1,3.4.2.1-.1.8-2.5-.2-1.4v-.2l-.3-.2-.2-.2-2.5-4.1-.2-.7V18l.7-.7,2.9-1.2,1.6-.5,2.2-.5,1.2-.1,2.9,1.2,1.2,2L89,20l.6,1.6.2.2.3.2.6.2,2.8.2.6-.1.6-1,.6-1,4.3-3.5,4.5-3.5,3.2-5.3,3.8-4.6,1.3-2.2,3.3-.7.3.1.1.2v.4l-.2.5-.2.8v.3l.3.4.7.4.7.1,3.2.1h1l3.4,1.7.1.1,1.4,1.6.7.6.8.5.2.2.2.4-.3.8-.1.2h-.1l-.7-.2-.7.6-.6.8-.2.4-1.5.3-2.4,2.7-.1.3v.1l.1.2,2.1,3.5.6.6.4,1.6.8,4.3-.1.2-.7,1.1-1.3-.1-1.6.3-.5.1-1.1,1.7-.2.4-.5,2-.1.3.5.8.7,1.2,1.7.6,5.3,2.2,3.4,1.7.1.2,2.3-1.2.3-1.2.1-.5-.1-1.4-.1-.1h-.5l-1.7.8-1.8-2.8,1.1-1.5,4.4-3.7.4-.3h.2l3.2-.5,3.1-.4.3.2,1.3,2,.3.6v1.3Z"/></g></g></svg>