<svg xmlns="http://www.w3.org/2000/svg" viewBox="0 0 36.79 36.5"><defs><style>.cls-1{fill:#ffdfba;stroke:#465968;stroke-miterlimit:10;}</style></defs><g id="Ebene_2" data-name="Ebene 2"><g id="Bundesrepublik_Deutschland" data-name="Bundesrepublik Deutschland"><path id="HH" class="cls-1" d="M.58,19.2,1,16.9l.4-1.6.3-.9.7-2.1.2-.3H3l-.1.5.1.7,1.7,2.1,1.1,1,.5.2.8-.4,3.5-4.4.4-.6.3-.6v-.3l.1-.8,1.1-.1h1.2l.2.2,1,.2.5.1h.8L21.08,6l.8-1.9-.5-.6,1.4-.9L27.08.5h.3l.2.1,1.3.7-.1.9-.6,1.4.1,4.7.8.9,1.6,2.2-.2.7v.1l-1.3,2.7-2.1,1.7-.7.6-.3,1.2.1,2.1.9,2.4.2.2,3.5,2.4.4.1.5-.1-.1.6.2.8,3.7,4,.5,1h-.1l-.2.1-2.2,1.2-.4.2-.2.3-.2.3-.6,1.5-.2.3-.2.1-.4.1-3.2-.1-.4-.1-.4-.3-2.5-2.4-1.8-2-.4-.5-.5-.6-1.8-1-.6.7-.6,1.3-.2.9L16.08,34h-.4l-1.6-1.3-2.1-2-.7-.9-.3-.2-.3.2-1.3,1.4-.8.6-.3.1-3.4-3.5-.1-.6-1-2.2L3,24.7l.3-2.2V19.7Z"/></g></g></svg>