<svg xmlns="http://www.w3.org/2000/svg" viewBox="0 0 235.69 165.74"><defs><style>.cls-1{fill:#ffdfba;stroke:#465968;stroke-miterlimit:10;}</style></defs><g id="Ebene_2" data-name="Ebene 2"><g id="Bundesrepublik_Deutschland" data-name="Bundesrepublik Deutschland"><path id="MV" class="cls-1" d="M18.93,80l4.6-3.1,3-1.8,1-.4.4-.1,2.2-.5.7-.1,4.9-.2.3.2.4.4,3.4,3.8-.2,1.9v.5l.3.8.6.6.6.3.5.2.5-.1.1-.1,1.2-.8.5-.3.2-.3,1.6-.4,2.4,1,1.3.6-.1.9.1.2.6.5,1.3.8.8.4,1.5-2.5.3-1,.6-5.6.9-1.8.1-.2.4-.4,1.8-1,.9-.3.3-.2.5-.4.2-.2,2.8-4.3.1-1.2-.1-.3-.6-1-.2-.2h-.2l-.3.3-1.3,1.3-.6,1-.8,1-.8.9-1.7,2.1h-.1l-.1-.1-.1-.9v-.5l.1-.5.6-1.2,1.7-2.4,7.6-6.2.2-.1.5-.1h.6l3.4-.1h.2l.6.3.7.2,1,.2,1.2.1h1l.9-.1.6-.1,1.3-.4,7-2.8,4.1.6,2.9.4,1.5-3.4,2-3.8.3-.5,1-.9,1.6-1.1,3.5-2.2,1.1-.7.5-.4.5-.4.6-.6.5-.6.6-.9,4.2-7.9,2.7-5.4,2.2-3.8,1.8,1.4.8.4.5.1,4.1.5,3.6.4,7.3-.2,4.2-.2,1.3-.2H140l1.3.1.1.1.1.1v.2l-.1.1-2.6,1.7-.4.2-1.9.5-4.2.3-2.9.1-1-.1h-.1l-.2-.2-.4-.7-.3-.7-.3-.1H127l-1.5.1-3.3.8-3.1,1.9-8.9,3.3-.9.8-2.7,6.4-.3,1.9v2.6l2.2,1.5,1.1.4,1.2.1,1-.2.4-.2v-.2l-.3-.2-.3-.2-1.2-.3h-.5l-.2-.1-.6-1.2-.1-.9.4-1,3.2-3.6,4.7-3.6,6-2.9,5.1,1,4.7,2.1,2-.4.4-.2,1.4-1.2V35l.2-.4.1-.5v-1l.6-1.5.1-.1,1.4-1.2.2-.2,3.8-1.4,2.2.2,4.1,6-.8,1.8.2.8,1.7,5.6,2.5,2.8,1.7-1,.7-.3h.2l6.1,2.9.1.1.4.7,1.6,3.3.3.6.2.4.2.1h.2l.3.6h2.2l2.2.8v.1l-1.7,1.5.1.7.2.2h.3l.5-.3.2-.2h.2l1.2.8.1.1.1.3.7,1.4v.9l.1.3,1.1,1.8.4.3.4.2,1.5.3.2-.1.2-.2v-.1l-.1-.2-.4-.6-.5-.7-.5-1.6v-.2l.9-.8.3-.1,8.8-2.9,3.5-1.1,3.9,3.9.6.7.5.9.2.7v4.6l3.3,6.8,3.9,4.1.7,1,.4.7.1.3v.2l-.4.6-.3.3-.1.1-.2-.1h-.4l-.4.2-.3.3-.8.9-1.8,2.1-1.5,2.1.1.4.6,1.2.2.2,5.8,3.6,2.1,1.5,1.6,1.4.4.2,6.8,2.4,1.3.4,1,.2,3.4.1h.3l.2-.1,1.1-.9.8-.9.4-.6.1-.1h.4l.7.2.4.2.8.7.4,1.1,1.1,5.7,2,6.4.4,3.8-.4,2.8v.1l.3,1,.7,2,.8,2.1.2.1,1.6,2.3.4,2.2,1.2,4.9,2.5,7.3.3.7-.4-.1h-.3l-5,2.1-.2.9-.6,1.8-2,2.8-.8.3-2.5.4-5.8-.2-1.1-.1.2-1.2.1-.5.5-.8,1.6-1.9.7-.7,1-1.1,1.1-1.3.8-1,1-1.6.4-1,.1-.5.5-2v-.5l-.2-2.8-.4-.7-.7-.5-6.3-.4-.7,1.4-3.9.1-2.7-.4-3.4.6-.6.3-1.6-.7-1.5-3.2-1-3.3-5-5.8-.5.1-.4.6-.1.3-.3,1.9v.3l.2,1.4,1.4,1.2-2.7,2.4-2.7.2-1.7,1.4-1,.9-6.6,6.3-.2.5-1.2,2.8-.5,1.6.2,1.3.3,1.8v.1l-.1.1-2.1,2.9-4.7,5-.7.3-.4-.1-1.1-1.6-.1-.9-.1-.2-.4-.5-.2-.1-3.5-.1-1.1.5-1.8,1.6-.4.5-.2.8-.1,1.2v.5l-.1.7-.5.9-1.5-.2-.2-.2-.8-1.8-.2-.6-.3-.6-1.9.3h-.2l-2.3,1.1-.4.4-7,7.6-.3.2h-.2l-2.1-.9-.1-.1V157l.3-.4.9-.7,1-.6v-.2l-.2-.5h0l-.7-.2-7.3.2-1.8.6-.1.1v.1l-1.2.4-.8.3-1.2-.1-.4-.7-2.5-2.6-3.4-3.2-.8-.1-7.7-.7-1.8.4v.5l-.2.2-3.3.4-2.5-2.8L111,146l-1-.8-1.9-1-.7-.4-.6-.2-.6-.4-2-.6-3.9-3H100l-5.5,1.1-1.5.5-1.7-.2-1.5-.3-2.1,3,.2,1.8-.4.5-3.7,2.7-.4.2-5,1.8-3.2.2,1.1,1.9.1.3v.1l-.2.2-5.5,1.2-.6.1-.7-1.5-1.7-1-1-.1H64l-.6.4-3.9,3.5.7,4.1-.6,2.5-.3,1-.9.6-1.5-.1-1.6-.3-.6-.3v-.3l-.8-.6-3.4.4-2.8,2.2-5.6-.3-.2-.3-.2-.3-.9-1-.6-.4-.6-.3-3.6-1.4.5-.2.6-.6.1-.2.3-.9v-.4l-.1-.2-.8-.4-.6-.1-.9-.2-1.2-.3-2.9-2.1-.7-.7-1.1-1.6-2.3-4.4-2-4.9-1.8-.5-2.6-.7-1.4,1.1-.4.8v.4l-1.1.7-1.1.7-.9.5-2.7-1-.7-.4-1.1-1-.2-.6-.5-.7-1.2-1.5-.6-.6-1-.8-.2-.1-.2-.1h-4l-1.1.1-.7.2-.7.4,1.8-8.1.6-1.3,1-.6h.5l.6.3,1.4.3,3.8-2.9.3-.3,1-1.1,2.1-2.5,6.6-8.7.4-2.4,1.4-1.9-.7-3.8-1.3-1.4-.9-.4-1.1-.2H18l-.2.1v.2l-.4.1-1.3.1-.2-.1-1.5-.9-3.8-3.7.4-3.1.2-1.5-.1-.5-.3-.9-.2-.4-1-2.5V91l1.4-2.3,5.2-3.7,2.6.2.9-2.1Zm141-77.7-.6.4-1.8,1.4-1.3,1.5-.2.3-3,7.5-.1.2-.1.9h.1l.5-.2.2-.2,3-2.9.7-1.7-.2-.6-.3-.9v-.1l.1-.1,1.7-2.3,1-.3h.1l.2.4.2,1.2v.3l-.1.6-.3,1L159,10l-.3.4-.2.6-.4,2v1l2.8-1.3,2.1-1.2,6.8,2.8h.3l1.9-.2,1.9-.8.1,5.2-.1,2.8-.1.1h-2.1l-2.7-.9-.7-.3-4-2.3-.2-.3v-.3l.3-3.1-3.1.1-3.3.1-1.1.3-3.3.9-.9.5.6,2.7.5.9,2-.1,1.6.1,2.5,2.3-.9,1.6-.2.1-2.2.8-1.2.2-1.3.3-1.2,2.6v.6l.3.2,5.3,1.2.7.1-1.4.9-5.9,2.9-.2.2-.1.4-.4,2.5v1l1.7,5V43l15.5,5.2,1.3-1,.3-.3.1-.3v-.1l-.1-.6-.4-.9-.9-1H168l-.2.2-.1.2.1.2v.1l-.6.6-.8.4H166l-.4-.4v-1.2l4.2-4.4,3.3-3.2,1.1-.8.3-.1,10-1.2.4.1,1.4,2.3v.6l-.2.4-.1.1-.8.6h-.1l-.9.5v1.5l2.1-.6.9-1.8,1.2-2.5-.5-1.6-1.8-2.9-1.3-1-1.3-.9-.1.1-.2.1-.6.1-1.2.1h-.2l-.3-.2-.4-.4-1-1.2-1.1-2.1-.3-.7-.3-1.1-.1-1.5.1-.6.2-.3.2-.2.1-.1,1.6-1.8,2.1-1.8.6-.3h.2l.6-.4.6-1.2.1-1.1-.2-2.1-.4-.5-.7-.6-1.4-.9-.3-.1h-.5l-1.8.2h-.4l-2.3.5-.3.1-2,.6-2.9.5h-.6l-1-.3-.4-.1-.5-.3-.3-.2-.8-.8-.7-1-.5-1.1-.4-1.5-.1-.9v-.3l.3-1,.3-.5.2-.1.5-.3.4-.1h.4l.3-.1.4-.4.2-.5.4-1.4v-.1l-.4-.5-.2-.3-3,.3-4.5,1.3Zm-12.4,22.2.1.3h.1l.2-.3.2-.7,1.1-6.1.8-3.9,2.3-1.2-3-1.1L147.43,22l-.1,1v.5l.1.3Zm4.8,1.5,4.3-2.3.5-.4.1-.1-.3-.9-.3-.3-1.3-.6-.2-.1-.7-.1-.7.2-.7.4-.8,1.1-.2.4-1.1,2.5v.7l.1.2.1.1Zm-9.6.9h-.3l-.2.1-.2.1-.1.1v.1l.3.3.2.2h.7l3.2-1.1.7-.6.4-.4-.5-.5-.2.1-2.8,1.1-.4.4-.5.6Zm51.3,26-.5-.6-.2-.2-.5-.1h-.3l-.7.2-.7.4-.5.4-.1.2-.2.4v1.3l.3,1.1.2.3,2,2.2.2.1.5,5,3.7,5.8.1.2.2.1h.2l3.8-1.8h0l.4-1.1v-.1l-1.3-1.9-.4-1.6v-.1l.1-.1,3.5.3,1.5,1.3,2.7,3,.3.3.2.4.4,1.1-.1,5.1-3.6-.6-.7-1.5-.6-2-.2-.1-.5-.2-.7-.1-1.9.5-.1.1-.1.1-.4.8-.2,1.4v.2l.2.4.3.3,1.2,1.5.4.9.8,2.3V79l-.4,1.1-.3.8-.2.2-1.1.6-1.3.7-1.3.6-.4.1H197l-.8,1.5.7.7,1.2.5,1.4.3,1-.1,2.6-.5,2.7-.8.3-.1,4.2-2.1,7.5-.8h.5l1.3-6-3.9-3.2-4.3-3.9-5.1-4.8-1.1-.6-1.5-.8-.4-.2-.4-.1-1-.2-1-.4-1.8-1-.5-.3-1.1-.9-1.1-1.1-.8-.9-.2-.4ZM53.83,77l.7-2.2.2-1.2-.1-.5-.1-.2-.3-.1-.9-.2-1.1.2-.3.1-.5.2-2.3,1.2-1.5,1.1-.3.6.1,1,.1.7.2.5.2.3.4.3.4.1,3.5.7Z"/></g></g></svg>