<svg xmlns="http://www.w3.org/2000/svg" viewBox="0 0 306.2 268.73"><defs><style>.cls-1{fill:#ffdfba;stroke:#465968;stroke-miterlimit:10;}</style></defs><g id="Ebene_2" data-name="Ebene 2"><g id="Bundesrepublik_Deutschland" data-name="Bundesrepublik Deutschland"><path id="NI" class="cls-1" d="M116.6,29.75l-.9-2.2-1.2-3v-3.3l.1-.7,3.8-11.4.5-1.4,1-2.6,2.2-2.9.8-.8,1.8-.5,1.3-.3,1.1-.1v.5l.1.3.1.3,1.5,1.8,2.8,2.1,1,.7.6.3.7.2,1.6.2,5.1.4,1.6-.3.3-.1.1-.1v-.1l.3-.1,2.1-.4h.5l2.1.5-.5-.6-.8-2L145.9,3l.8-.4.9-.3.8-.1h1l3.2.2,3.6.1h2.1l1.9.3,3.5,1.5,1.8,1.3L167.9,9l.5,1,1.8,3.9.8,1.9.7,1.3.6.8.9.8,2.3,1.7,1,1.1.3.6.8,1.9.4,1,.1.5.1,1.6.3,1.3.4.9.4.6,2.3,1.8,5.4,3.5,1.6.6,1.7.2,2.7.4v2.8l-.3,2.2.8.9,1,2.2.1.6,3.4,3.5.3-.1.8-.6,1.3-1.4.3-.2.3.2.7.9,2.1,2,1.6,1.3h.4l2.8-2.1.2-.9.6-1.3.6-.7,1.8,1,.5.6.4.5,1.8,2,2.5,2.4.4.3.4.1,3.2.1.4-.1.2-.1.2-.3.6-1.5.2-.3.2-.3.4-.2,2.2-1.2.2-.1h.1l1.6.9,5.9,2.7,2.4,1.2.8.6.9.5.6.2,4.1,1.2h.5l.3-.1.4-.3.1-.1h-.1l.7-.4.7-.2,1.1-.1h4l.2.1.2.1,1,.8.6.6,1.2,1.5.5.7.3.6,1.1,1,.7.4,2.7,1,.9-.5,1.1-.7,1.1-.7v-.4l.4-.8,1.4-1.1,2.6.7,1.8.5,2.4,5.6,2.3,4.4,1.1,1.6.7.7,2.9,2.1,1.2.3.9.2.6.1.8.4.1.2v.4l-.3.9-.1.2-.5.6-.5.2,3.6,1.4.6.3.6.4.9,1,.2.3.2.4v1.7l.1.2,1.1,1.4,3,3.1.3.2h.7l1.7-.9,1-.8.3-.2.4-.1,2-.6h.9l.4.2.4.3.7.8,1.2,1.2.6.4.6.2,4.4,1.1h.6l.1.1v.1l-2.5,3.6v.1l-.7-.1-.6-.4-.4-.5h-.1l-.8.2-.3.7-.2,1-.6,3.2.8,1.9h-.9l-1.2.3-1.1.6-1.8,1.7-.9,1.2-.1.2-5.7,2.8-1.1.3-3.2-.3-.3-.1-.1-.1v-.4l-.1-.3-.3-.3-.7-.8-3.9-.8-9.3-.4h-.3l-.3.1-.3.4-.2.7v.8l.1.5v.2l-.2.4-2.8,3.1-6.1.2-2.7.5-2.1.6-.5,2.2v.2l.2,2.3-.1.6-.1.6,2.6,7.2,2.6,1.9,3.7,5.3,2.8,5.4h0l-.2,2.2.3,1.3.3.8.8,1.3,1.3,1.7,1.8,2.1-1.7-.1-2.2,1.2-.6,1.6.9,1.8,4.5,5.8,1.3.8.3.1.2.1.8.7.6.6.1.4v1.4l-.1.2-.8.6-1.1.5-.2.1-.6-.1-1.2,1.7.4,4.1.1.1,1.4,1.6,1.4,1.4,1.4,2,.4,1v.2l-.6.8-1.1.2-.7.2-1,.5-.3.2-.3.5-.4,1-.1.8.1.4.1.3.2.2.4.3.7.4h.5l.9-.1h.2l.1.1.1.4-.1,1.5-.2.3-1.2,1.8-1.9,1.5-2,1.4-.4,1.9-.3,3.1-.1-.1-1.7-.2-3.4.1-.5.1-.9.7-.4.1-1.4.3-2.1-.6-.9-.2h-.3l-5,.1-1,.2-1.9.6-.1,1,.2.4v.3l-.1.1-1.8,1.7-4.2.4,1.7,2.4,3.7,2.8-1.3.4-.8,1.1v1.8l.9.3.8.3.5.6.1.3.1.7v.7l-.1.3-1,1.6-.2.1h-.4l-.4.2-2.1,1.8-.4.5-.1.5v3.5l.3,2.8.7,1.5,1,.6,3,4.5.9,2.2-.2.5.1.9.2,1.3.1.4,1.3,2,.3.4.1.1.4.1-.1.2-1.2.2h-.3l-2.1,5.5-.9,1.8-4.6,1.2-2.4.3-.6-.3-1.2-1.8-.4-.3-.7-.5-.4-.2-1.5-.7-.8-.3h-.2l-2.4.6-.7,1.2-.9,1.9.4.2v.1l-.2.8-.1.3-1.5,2.3-.1.1-2.6,2.1-8,5.4-5.3,1.1-6.7,3.9-3.1,2.1-.5.2-.2.1-.2-.1.4-.2v-1.3l-.3-.6-1.3-2-.3-.2-3.1.4-3.2.5h-.2l-.4.3-4.4,3.7-1.1,1.5,1.8,2.8,1.7-.8h.5l.1.1.1,1.4-.1.5-.3,1.2-2.3,1.2-.1-.2-3.4-1.7-5.3-2.2-1.7-.6-.7-1.2-.5-.8.1-.3.5-2,.2-.4,1.1-1.7.5-.1,1.6-.3,1.3.1.7-1.1.1-.2-.8-4.3-.3-1.6-.5-.6-2.1-3.5-.1-.2v-.1l.1-.3,2.4-2.7,1.5-.3.2-.4.6-.8.7-.6.7.2h.1l.1-.2.3-.8-.2-.4-.2-.2-.8-.5-.7-.6-1.4-1.6-.1-.1-3.4-1.7h-1l-3.2-.1-.7-.1-.7-.4-.3-.4v-.3l.2-.8.2-.5v-.4l-.1-.2-.3-.1-3.3.7-.1-.1h-.2l-.6.2h-.1l-.5.2h-1.9l-.3-.1-.5-.3.9-7.2,1.8-5.6,1.2-3v-3.4l-1.8-1.8-.6-.3-1.5-.6-.3-.1h-.2l-.6.2-.3.2-1,.6.2-.1.5-2.4.1-1v-.6l-.3-1.3-.5-.8-.1-.1-1.1-.6-.3-.1H163l-1,.2-.9-.5-5.7-4.1-.6-1.5-.3-6.2v-2l.5-.7.5-.3.1-.1-.9-1.6-1.3-1.2.3-2.2-.3-1-.5-.6-.2-.1-.9-.3-3.5-.7-3.5-2.7-1.9-2.5,2.3,1.2h1.5l2-4.9.1-.2-2.5-1.7-2-.8-1.6-.5-.3-.1-.2-.1-.5-1.6,2.3-4.8.7-.5,1-.7,1-.5,1.2-.2.8-.5.8-.7.1-.1.8-1.5,1.5-3,.2-.5.1-.7-.9-2.3,1.8-4.1-.1-.2-.2-.7-2.7-1.2-2.3-.5-1.6,2.1-.8,1.4-2.1,2.8-2.9,3.8-.2.1-5.1,1.1-6.7.1-1.8-.8-.5-.4-.2-1.5-.2-7.6.3-1.3v-.3l-.2-.6-.7-.7-2.1-1.7-6.3,3-3.1-1.5-3.1,2.4-.1,1.4-.2,1.3-.1.3-1.5,1.3-1,.1-3.4.3-.5-.5v-.2l-.3-.3-2.4-.6h-.3l-.4.3.5,1.1.7,3.2,5.2,3.9,2.2,1.7,1.6,4.6-.1,1.8.2,3.3-.5,1-1.1,4.5.1.2.5,1,.8.7.3.1h.4l1.2.4,1.2.6-.6.8-.5.6-1,1.1-.2.2-.5.3-.4.1h-.6l-.2.1-2.2,1.5-.4.4-.3.5-.1.3.1.6.2.7-3-.3-2.4-.9-2.9-.6-.6-.1-1.4,1-1.7,1.6-4,2.9-1.6.4-2.3,1.4-.3-.6-1.1-.3-1-.1-1.5-.1h-.2L80.5,189l-.4.5-.6.9-1.1-.4-1.8-.8-1-.5-.2-1-1.4-2.3h-.3v-.1l.9-.7,3.7-1.2,3.2-1-.2-4.1-2-1.8-2.3-.4h-.1l-1.2-.9-.3-.5-.3-1-.2-.8v-.1l2.7-5.8,1.1-.7-1.4-1.4-.2-.2-.1-.6v-.5l.1-.4,2.1-2.2-.7-2.5-1-1.7-2.8-1.7-1.6.4-.3.2-1.3.6-2.2-.3-5.1-3.1-1.6-4.5-.5-1.1-.2-.3-.2-.2L57.1,145l-.2-.1-.8,1-.6,1-.4.8-.5,1.5.7.5,1.4.7-.1.7-1.8,3.2-2.3,1.2h-.6l-1.7,1-4.2,2.6-3.7,2.7-.6.5-.3.7-.3.5-1,.5-1,.1-.8.1-.4.6-.9,1-5-.4-1.3-.1-2.6-.3-2.1.5-.6.6-.2.3-.7,1-2.1.1-1.4-1.6-.6-1.6-.1-.8-.1-.8.1-.5,1.4-3.1.7-1.5,1.1-1.4.1-2.1-.5-1.9-4.1-7.8-.1-.1-.3-.2-.6.4-.6,1-.5,1.1-1,.7-.3.1-10.4-2.9L3.9,144l-3.4-2.5v-.3l.4-2,.2-1.2.8-2.9.4-4.1-.4-4,2.1-1.7,1.1-.3,1.6-.3h.4l6.5.4,5.3.9,1.3.4.2.2v.1l.4.2,1.8.5h.1l.2-.2.6-.8.8-7.2.4-4.1.6-5.8,1.1-4,2.1-2.9,4.1-6.2,1.1-4.8.6-1.8.2-1.1-.5-6.9.3-3.4-1.2-.9-.1-.8v-.8l.9-2.4.8-1.4.9-2.1.4-5.5,1.1-4.7.7-2.1.1-.3.1-.1.5-.2h2.9l-.4-.1-2.3-.6-1.2-.3-.9-.1-3.1-.3-7-.2-2-.3-.4-.2-.3-.4L23.1,53l-.2-.5.1-.3,1-1.7.1-2.6,1.6-12.8,3.4,1.5,1,1.4,1.9-1.9L33.1,35l-1-1.8-.7-.4-1.6-1.1-.5-.7.3-.9,4.6-4.8,1.2-1.2,2.7-2,1.1-.8,2.8-1,1.3-.3,1.2-.1,1.7-.1,7.5.6.4.1.6.4.1.2.5.4.7.4h.5l1.8-.3,3.9-1.3,4.2-1.2.4-.1.6-.1h.4v.2l.6.1h1.1l1.2-.1,3.2-1,6.2-.6,3.2.4,2.9.5,1,.5.2.3v.5l-.1.2-.4.6-.1.7.3,2.3.2.9.5,1.4,2.9.4.3.3.5.8.6,1.1,3.4,7.9v.1l-.1.3-.1.4L95,38l-.3.6-.9.5-.9.3-2.1.8-.4.1h-.9l-1-.8.1,2.1.1.9.1.5.2.7.3.7.6.8.8.9.4-.2.8-.6H93l.7.2,1,1.3,1.2,1.8.6,1,.1.1v.2l.2.4.1.1.6.3,1.1.3.8.1h.4l.6-.3.5-.4.2-.2.7-.8.6-.8.5-.8.7-1.7.3-.8.1-.8.2-3.7-.1-1.6L104,39l-.2-.5-.1-.2-.4-.3-1.6.6-.5.2-2.1-.4.5-4.2.3-1.7.1-.3.4-.9.3-.5.9-.9.9-.7,1.3-.5,1.2.1,1.4.9.4.6.7,1.4.9,1.4,1.1.6,3.7,1.7h.2l.4-.1h.5l1.4.2.8.1,1.9,1.2.1.1.1.3.2,1v.1l-.2.2-.3.3.3.5,1.4,1.8v.2l-.3.1-.4.5.2.2.3.2,1.8.2h.2l2.6-2.7.1-.5-.9-3.9,1.1-5-.1-.1-1.7-.3-5.4-.3Zm27.6,49.8-.3-.6-1.4-1.7-.7-.5h-.3l-1.1.7-4.7-.1-3.8-1.9-4.2-2.1-6.5-.8-7.5-4.1-.3-.9v0l.2,1.3.4.9.3.6.7,1.1,1.5,1.2,2.4,1.1.8.3.9.1.8.2.4.3.3.5,1.6,4.2.1,1.3.9.6,2,2.1.5.7.1.6.1,2.6.5.5.5.5.3.1,1.1-.4.4-.1h1.3l5.3,1.9,3.1,1.2,3.3-2.8.1-2-.4-4.8-.8-1.2.1-.1.1-.1,1-.4ZM77.3,11.65l-1-1.3-.1-.1v-.2l.4-.4.4-.2,1.3-.1H79l.7.1,1.8.4.6.2.2.1,1.2.9.1.5h-.2L81.8,11,78,10h-.1l-.1.1-.3.4Zm9.3,3.2h-.1l-.3-.1-.3-.2-.2-.2-.1-.2-.4-1.7v-.4l.7-.9.4.4.4,2.1-.1,1.2Zm-20.7-1.3-.5-.1-.2-.1L65,13v-.4l.3-.6.6-.8.3-.3.3-.2.6-.2h2.6l2.4.2.4.1,1.4.4.4.4.1.1h-.1l-3.7.7-3.7-.2Zm-12.7,2.8H53l-.4-.3-.1-.9v-.7l.1-.3.7-1,.2-.2.6-.3.4-.1h3.4l2.7.1,1,.1.2.1.4.1.4.2.1.2V14h0l-.8.1V14l.1-.1v-.1h-.1l-2.1-.1h-.2l-1.6.1-2.3.2-.3.1Zm-2.3.1-1.4-.1-1.6-.2-1.4-.3-.3-.5v-.1l.1-.1,1.5-.6.3-.1h.3l2.1.5.1.1.3,1.1v.3Zm-17.4,1.6-.6-.5-.3-.4-.1-.2.1-.2.3-.2.4-.2,1.4-.6.9-.2.5-.1h8.2l.5.1.2.1.2.5v.1l-.9.3-.6.2-7.7,1L34,18ZM18,20.75h-.7l-.3-.1-.5-.3-.1-.2.1-.1.3-.1,2.1-.2,6.9-.7h3.1l.9.2.1.2.1.1v.3l-.2.2-.1-.2h-.1l-1.5-.1H26.8l-3.5.1-4.7.7-.6.2ZM8.3,31.25l-.5-1.1L7.5,30H7l-.4.2-.1.1v.3l.1.3.1.1H6.6l-.6-.1-2.6-2.1-.4-.7-.2-.9.1-.4.2-.3.1-.1.3-.1,5.2-1.6H9l.6.1.7.3,1.8,1.3.5.6.1.2-5.3,1.5,1.3,1.1.7.8-.1.1-.6.4Z"/></g></g></svg>