<svg xmlns="http://www.w3.org/2000/svg" viewBox="0 0 232.35 222.77"><defs><style>.cls-1{fill:#ffdfba;stroke:#465968;stroke-miterlimit:10;}</style></defs><g id="Ebene_2" data-name="Ebene 2"><g id="Bundesrepublik_Deutschland" data-name="Bundesrepublik Deutschland"><path id="NW" class="cls-1" d="M231.7,92.1l-1.3,2.2-3.8,4.6-3.2,5.3-4.5,3.5-4.3,3.5-.7,1-.6,1-.6.1-2.8-.2-.6-.2-.3-.2-.2-.2-.6-1.6.7-1.8-1.2-2-2.9-1.2-1.2.1-2.2.5-1.6.5-2.9,1.2-.7.7v.4l.2.7,2.5,4.1.5.1.3.2v.2l.2,1.4-.8,2.5-.1.1-3.4-.2-4.2.1-3.8,1-5,1.5-3,1.9-1.1.7-1.1,1.4-2.6,3.8-.6.9,2.1,2.9.2.2.3.1h.9l1-.7,4.6-2.1.7-.1h.9l.9,1.2.1.3.7,6.4.2,2-.1.4-.3.7-2.8,6.2-3.2,1.2H180l-1.1-.3-.8-.3-1.7-.3-2.8-.2-.1.1-1.3.5-.1.1-.8.6-.5.5-.4.6v.2l.1.3,1.1,3.3.7,1.5.4.9-.5.7-.4.4-1,.9-1.4,1.6-.9.9-.1.2v.2l.3.4-.2-.1h-.6l-.1.1-.4.2-.1.1-.6,2.6-4.3,6.5-1.1,1.2-.1.1-.5.1-.2-.1-4.1-2.2-.2-.1H155l-.2.2-9.5,9.3.4,1,.4.8.8,1.5.8,1.1.2,1-.1.4-2,3.7-.7,1-1-1.2-.7-.6-1.3-.3-2.7.9.3-1.5-.1-1.6-.4-.4-1.5-1.5-1.5-1.4-.3-.3-.6-.8-.3-.5-.2-1,.1-.9v-.7l.4-.4.1-.2.2-2.1v-.6l-.6-1.4-.3-.3-.3-.2-4.9-2.8-1.1-.3-2.3-.6-.1-.5v-.3l.1-.4.5-1.6.4-.9.5-.8-2.3-1.7-1.3-.3-.4.2-2.4,2.1-.5.5.6,5-1.3,1.8-2.4,2.1h-.1l-1.6.6h-.3l-.6-.1,1,.8.3.3.2,1.6-.3.9-1.1,1.4-.5.4-13.1,4.7-.9.4-.3.2-2.1-.7-1.9.1-.5.5-.5,1,.1,1.5v1.6l-.5,2.1-.2.3-1.3.7-2.8.9-.8.2-1.6.4h-3v-.4l.1-1.6v-.5l-.1-.3h-.5l-.3.1-.3.6-.1.5-.4,1.4-.1.1-1,1-1.6.5-5.3,1.2-2.6.4L72,198l-1.1,1.1-.2.1L69,200l-.7-.1-2.2-.3-.2,1.4L64,208.8l-2.4,1.1-.7.2-2.4-1.6-.4-.3-3.2,2.1.1,6,1,1.8.9,1.5-.6-.1-.8-.1-3,.9-3.2-.9-3.8-1.6-.1-.2-1.3-1.4-4.7,1.6-4.8.7-.7-1.1-.1-.1-2.2-1.9-1.9.4.3,1.3.7,2.7.2.5.5.8.7,1.1-1.4-.1.3-1.2v-.1l-.5-.9L28.1,217l-.1-2,.6-1,.3-.8.5-2.5.1-.7-.1-1.1-.2-.5-1.7-2.9-.5-.7-1.1-.7-.2-.3-.2-.2-2.5-.4H21.7l-.5.4-1,.4H20l-2-2.8-.3-.6-.5-1.6-.1-1.5.1-.3,3.3-3.1.8-3.6-3.5-.9-.9-1.1.2-.1,1.1-.4-.8-.7-.5-.7-1-1.6-.3-.5-.1-.5-1.3-3.4-.3-.3-.2-.1-4.5-2.5-2.7-4.5L8.1,168l.2-.7,1-.4,1-.3h.4l.1.3,1,.5,1.1-2.6-.1-.7-.3-.4-.3-.5-.1-.5.4-1.5.1-.2.4-.4.1-.3.1-.4-.8-.3-1.3-.6-2.4-.9-.1-1.4.1-1.4.6-1.2.3-.9v-.1l-.5-.1-3.2.3-2.5.6-.9-1-1.4-3.1-.6-3v-.5l.1-.1,3-1.3,6.2-2,7.9-5.3,1-2.9,2.4-1,.4-.2-1-.8-1.1.4-1.7.8-.5.3-.1.2-.2.2-.4.2-.3.1h-.6l-.5-.1-.5-1.1-.1-3.2,1.2-3.4,7.2-9.1,2.3-2.7-1-3.6.6-3.2.5-1.6.3-2.3v-.7l-.5-4-.7-1.4-2.6-4.2-.7-.5L17.8,90l.2-1.1-.2-4.5-3.2-1.5-.4-.5-.1-.1-1.9-6.2-1.5-7,1.5-2.5,4.4-2,2.2.1,4.9-.7,2-1.3,4.9.2.2.1.7.3.7.4,3,1.9,1.9,1.7,1.3.7.4.1-1.1-3.5v-.3l.3-.9h.2l2.1.9,4.9.1.9-.5,1.5-.8L50.5,62l5.8-2,.6-.1.5.3.3.5,1.4,1.4h0l.7-.2,1.2-.8,1.2-.9,1.3-1.3,2.7-3.4.3-.6v-.2l-.1-1.4-.2-.8-4.5-3.8-2.4-1.3,1.5-3.5,1.5-2.5L68,39.6l.6-.1.8-.7.4-.4.4-1.6.2-.8,1.8-2,7.7-4.8,2.5-1.5,2.1-.1.7-1,.2-.3.6-.6,2.1-.5,2.6.3,1.3.1,5,.3.9-1,.4-.6.8-.1,1-.1,1-.5.3-.5.3-.7.6-.5,3.7-2.7,4.2-2.6,1.7-1h.6l2.3-1.2,1.8-3.2.1-.7-1.4-.7-.7-.5.5-1.5.4-.8.6-1,.8-1,.2.1,4.6,1.8.2.2.2.3.5,1.1,1.6,4.5,5.1,3.1,2.2.3,1.3-.6.3-.2,1.6-.4,2.8,1.7,1,1.7.7,2.5-2.1,2.2-.1.4v.5l.1.6.2.2,1.4,1.4-1.1.7-2.7,5.8V33l.2.8.3,1,.3.5,1.2.9h.1l2.3.5,2,1.8.2,4.1-3.2,1-3.7,1.2-.9.7v.1h.3l1.4,2.3.2,1,1,.5,1.8.8,1.1.4.6-.9.4-.5,2.3-1.7h.2l1.5.1,1,.1,1.1.3.3.6,2.3-1.4,1.6-.4,4-2.9,1.7-1.6,1.4-1,.6.1,2.9.6,2.4.9,3,.3-.2-.7-.1-.6.1-.3.3-.5.4-.4,2.2-1.5.2-.1h.6l.4-.1.5-.3.2-.2,1-1.1.5-.6.6-.8-1.2-.6-1.2-.4h-.4l-.3-.1-.8-.7-.5-1L169,33l1.1-4.5.5-1-.2-3.3.1-1.8-1.6-4.6-2.2-1.7-5.2-3.9L160.9,9l-.5-1.1.4-.3.4.1,2.4.6.3.3v.2l.5.5,3.4-.3,1-.1,1.5-1.3.1-.3.2-1.3.1-1.4,3.1-2.4,3.1,1.5L182.8.6l2.1,1.7.7.7.2.6v.3l-.3,1.3.2,7.6.2,1.5.5.4,1.8.8,6.7-.1,5.1-1.1.2-.1,2.9-3.8,2.1-2.8.8-1.4,1.6-2.1,2.3.5,2.7,1.2.2.7.1.2-1.8,4.1.9,2.3-.1.7-.2.5-1.5,3.1-.8,1.5-.1.1-.7.7-.8.5-1.2.2-1,.5-1,.7-.7.5-2.3,4.8.5,1.6.2.1.3.1,1.6.4,2,.8,2.5,1.7-.1.2-2,4.9h-1.5l-2.3-1.2,1.9,2.5,3.5,2.7,3.5.7.9.3.2.1.5.6.3,1-.3,2.2,1.3,1.2.9,1.6-.1.1-.5.3-.5.7v2l.3,6.2.6,1.5,5.7,4.1.9.5,1-.2h.1l.3.1,1.1.6.1.1.5.8.3,1.3v.6l-.1,1-.5,2.4-.2.1,1-.6.3-.2.6-.2h.2l.4.1,1.5.6.6.3,1.8,1.8v3.4l-1.2,3-1.8,5.6-.9,7.2.5.3.3.1h1.9l.5-.2h.1l.6-.2h.2Z"/></g></g></svg>