<svg xmlns="http://www.w3.org/2000/svg" viewBox="0 0 157.51 203.6"><defs><style>.cls-1{fill:#ffdfba;stroke:#465968;stroke-miterlimit:10;}</style></defs><g id="Ebene_2" data-name="Ebene 2"><g id="Bundesrepublik_Deutschland" data-name="Bundesrepublik Deutschland"><path id="RP" class="cls-1" d="M134.51,27.23l-.9,1-.1.4-.1.5V30l.9,4.9.1.3.4.2,1.2.7v.6l-.4,1.2-.7,1.8-.3.7-.8,1.9-.2.4-.8.1-1.1-.2-1-.3-.5-1-1.2-.5h-.3l-.6.2-.4.1-2.4,2.8-.5,1.1-.5,2.4v.3l.5,1.3.7,1-1.8,4.9-.3.8h.5l5.3,3.5,2.7,4.9.2.4.1.2.7,2.2.1.4v1.9l-2,1.2-2.1-.9-.7-.1-.9.3-1,1.3.2.5,1.7,1.6.4.3.1.2-1.7,1.9h-.3l-1-.2-1.8-1.1-4.3,1.9-.3.2-.6.4-1.5,2-.1.1.1,1.3.4.5.5.3.8.6,1,.9.1.4-.4,3-.3.4-2.3-.6-.4-.1-4.2,3.5-2,1.1-.9.2.7,1.9,5.4,7.6.5.3.3.1h.3l3.3-.1,2-.3.3-.1,7-2.7,4.1-1.9,2.5-.8.9-.1,1.1.1,1.9.4.6.2,1.2,1.1.7.7.4.6.8,1.2,1.3,1.2.7.8.4.6.5.8.5,1.2v1l.6,1.9.1.6v.5l-.1.3-.2.5-.3.6-.1.4-.1.5v.4l.2.8,2.2,5.6.3.5,1,1.4.5,1,2.8,2.9.3,2.3-.6,1-.1.3-.1.2-.4.6-.5.4-.4.2-.4.2-1.5.3-.7.3-.5.2-.5.3-.6.5-.1.1-.2.4-.1.2-.2,1,.1.5,1.6,5.1.5.9,1.6,2.4.5,1.2-.1,1.1-.4.7-.1.5v.8l.1.3.4.8,1.1,4.4.1.6.4,3.2-.2.2-.2.2-.1.3v.4l.1.2.2.2.3.2.2.1.6.1h1.7l.6.1.4.2.3.4.1.3v.3l-.8,2.1.2,2.3.1.9v.6l-.2.9-.4.8-.6.9-.5.5-.4.3-.4.3-.5.5-.2.3-.1.3v.6l.1.4.2.2.2.1,1,.3.2.1.4.3.2.4.1.5v.4l-.1.2-1.4.7-1.8,2-.5.4-1.4.9-.6.3-.5.4-.4.4-.3.5-.2.6-.1.7h.3l.2,1.8-2.4,10.3-.2.5-.4.7-.7.8h0l-1,1.1-.7,1.1-.4.7-.5,1.2-.2.9-.2,1.4-.1.3-.1.3-.4.9-.3.5-.3.5-.4.4-1.1.8-1.6,1.2-.4.2-.3-.6-.2-.3-.1-.1-3.5-.4-.3.1h-1l-.9-.2-3-1.2-1.6-.7-.1-.3-.7-.8-.7-.7-5-2.4-3.3-.9-1.3-.1-1-.5-5.1.1-3.4.8-.3.1-1.9.1-3.9-.2-2.9-1.1-4.5-2.7-.9-.6-1.4-1.2-2.1-4v-.8l.2-1.2-.2-1.4-3.2-1.6-2.4.4-2,.4-1.1.3v.5l.1.3.2.3h-1l-.3-.2-.2-.2-1.8-2.6-.9-1.2-1-3v-.8l1-1.3,2.9-1.9,1.4-.7.6-.3.4-.4.6-.8.5-2.3-.5-.5V166l.7-4.3.6-.4-.4-.4-1.2.6-.7.2-5-2.9v-.4l.3-1.5-.1-.8-2.5-1.7-.1-.4-.2-1v-.1l.4-.3,1.7-.5.5-5.2-.1-4.4-.1-.8v-.2l-.5-1-.4-.7-.2-.3-.4.4h-1.3l-.8.3-.8-.1-6.1-3.3-3.3-3-2.6-1.7-.5.6-.5.5-1.6.6H56v-.2l.2-.7.1-.3-.9-.2-2-.3-.4.1-3.1,1.8-.1.1-.1.1v.1h-.4l-1.9.7-3,1.2-.8.4-.3.2-.6.6-.2.3-.5.5-.2.1-1.3.8-.6.3-4.3,1.2-7.1,1.2-4.4-.3-1.3-.2-7-2.2-.5-.3-1.4-2.2v.3l.1-.2,1.3-2,.4-.5.2-.1h.5l.3-.1.2-.3,1.2-1.3,5.8-9.4,1.5-5.1v-.6l-.6-4.2-2-1.3-1.5.9h-1.6l-1.8-1-.2-.2-3.1-3.1L9,105l-1.8-2.1-3.3-5.6-.4-1-.3-.8L2,92.63l-1.5-6.1.3-3,2-7.2,2.5-2.1L5,70l.2-1.3v-.1l.2-.2,7.5-4.8.4-.9,1.2-2.5.4-.2,1-.2,2.2,1.1,2.8-.7,1.4.1-.7-1.1-.5-.8-.2-.5-.7-2.7-.3-1.3,1.9-.4,2.2,1.9.1.1.7,1.1,4.8-.7,4.7-1.6,1.3,1.4.1.2,3.8,1.6,3.2.9,3-.9.8.1.6.1-.9-1.5-1-1.8-.1-6,3.2-2.1.4.3,2.4,1.6.7-.2,2.4-1.1,1.9-7.8.2-1.4,2.2.3.7.1,1.7-.8.2-.1,1.1-1.1.9-1.1,2.6-.4,5.3-1.2,1.6-.5,1-1,.1-.1.4-1.4.1-.5.3-.6.3-.1h.5l.1.3V30l-.1,1.6V32h3l1.6-.4.8-.2,2.8-.9,1.3-.7.2-.3.5-2.1v-1.6l-.1-1.5.5-1,.5-.5,1.9-.1,2.1.7.3-.2.9-.4,13.1-4.7.5-.4,1.1-1.4.4-.9-.2-1.6-.3-.3-1-.8.6.1h.3l1.6-.6h.1l2.4-2.1,1.3-1.8-.6-5,.5-.5,2.4-2.1.4-.2,1.3.3,2.3,1.7-.5.8-.4.9-.5,1.6-.1.4v.3l.1.5,2.3.6,1.1.3,4.9,2.8.3.2.3.3.5,1.4v.6l-.2,2.1-.1.2-.4.4-.1.7-.1.9.2,1,.3.5.6.8.3.3,1.5,1.4,1.5,1.5.4.4.1,1.6-.3,1.5,2.6-.9,1.3.3.7.6Z"/></g></g></svg>