<svg xmlns="http://www.w3.org/2000/svg" viewBox="0 0 207.5 176.2"><defs><style>.cls-1{fill:#ffdfba;stroke:#465968;stroke-miterlimit:10;}</style></defs><g id="Ebene_2" data-name="Ebene 2"><g id="Bundesrepublik_Deutschland" data-name="Bundesrepublik Deutschland"><path id="SH" class="cls-1" d="M183.2,114.4l.9,3-.9,2.1-2.6-.2-5.2,3.7-1.4,2.3v1.8l1,2.5.2.4.3.9.1.5-.2,1.5L175,136l3.8,3.7,1.5.9.2.1,1.3-.1.4-.1v-.2l.2-.1h.2l1.1.2.9.4,1.3,1.4.7,3.8-1.4,1.9-.4,2.4-6.6,8.7-2.1,2.5-1,1.1-.3.3-3.8,2.9-1.4-.3-.6-.3h-.5l-1,.6-.6,1.3-1.8,8.1h.1l-.1.1-.4.3-.3.1h-.5l-4.1-1.2-.6-.2-.9-.5-.8-.6-2.4-1.2-5.9-2.7-1.6-.9-.5-1-3.7-4-.2-.8.1-.6-.5.1-.4-.1-3.5-2.4-.2-.2-.9-2.4-.1-2.1.3-1.2.6-.6,2.1-1.7,1.3-2.7v-.1l.2-.7-1.6-2.2-.8-.9-.1-4.7.6-1.4.1-.9-1.3-.7-.2-.1h-.3l-4.3,2.1-1.4.9.5.6-.8,1.9-4.9,3.8h-.8l-.5-.1-1-.2-.2-.2H124l-1.1.1-.1.8v.3l-.3.6-.4.6-3.5,4.4-.8.4-.5-.2-1.1-1-1.7-2.1-.1-.7.1-.5h-.4l-.2.3-.7,2.1-.3.9-.4,1.6-.4,2.3-1.7-.2-1.6-.6-5.4-3.5-2.3-1.8-.4-.6-.4-.9-.4-1.2-.1-1.6-.1-.5-.4-1-.8-1.9-.3-.6-1-1.1-2.3-1.7-.9-.8-.6-.8-.7-1.3-.8-1.9-1.8-3.9-.5-1-2.4-3.4-1.8-1.3-3.5-1.5-1.9-.3H77.9l-3.6-.1-3.2-.2h-1l-.8.1-.3-2.6h-.2l-1.5.7-.3.1h-.5l-.4-.1-1-.9-1.9-1.6-.9-1.3-.6-1.7-.3-1.1-1.3-3.2L58,107.1l-.4.1-.3-.1-.1-.2,1.5-1.2,1.2-.7,1-.2,2.5.6.5.3.4.5.7.1.8-.2.5-.2.2-.2.3-.3.2-.4.1-.6.2-.7v-.6l-.1-.4L64,96l-.2-.3-.7-.2-.3-.1-1,.2-.4.3-1.3.8-.5-.3-1.1-.7-.1-.2-.5-1-1-2.8-.1-.5V91l.2-.6,1.1-2.2.6-1.4.1-.4.3-3.5.1-.7v.2l-.2-.1.2-.1v-.3l-.1-.6-.1-.4-.3-.5-.4-.5-.2-.1-.3-.1H54l-.8.1-2.4.2-1,1-.6.8.1.1.5.1h.1l.1-.1h0l-.1.1-.1.1-.2.1h-.4l-.4-.1-4.4-2.3-.6-.4-.5-1-.1-.5.1-.7.3-1.4.2-.8.3-.9.2-.4.1-.1.9-.5.1.9,1.2.9.6-.1.2-.1L50,73.1l.1-.1.1-.2V71.7l-.1-.6.5-2.4,6.6-1.2,1.3.1,1.4.7L61,68l1.3-.6,1.1-.6,5.5-4.6.1-.1.6-1.1.2-1.1v-.3l-.2-.8L68.3,56l-6.4-9.1-3-4.2L57.7,42l-1.8-.9-1.2-1.2-.3-.4-2.2-5.7L51.4,30l-.9-1.8-.1-.2-2.3-2.7L46,22.9v-.2l.4-3.6,1.5-3.4h1.8l.7.1.4.2,1.2.8,5.4-.3.7-.1.8-.1h.5l4.1.3,2.7.2.6.2.3.1,3.1,1.4.9.6v.2l.4.3.7.4.9.1,1.6.1,1.3-.4h1.4l.4.1.7.2,2.9,1.2,2.1,1,.3.6-.4.5-.2.4v.4l.1.4.7,1.8,4.7.5,1-.1,1.5-1.3.2-.2.1-.6,2.6-.5,1.1.5,1.4-.5,1.3-.4.9-.4,5.1-4.6.5-.1,2.2.8-.4.7-1,1.9,4.3,1.8,3.3,1.4,5.9,6.7,1,.5.9.3.5.1h.1l.1-.1,1.6-3.5-.1-.2.2-.5.2-.3.1-.1,1.1.7,1.7,1.2,1.1,2,3.4,10.6-.1,2.2-.2,3v5.8l-1.7,2.9-.2.3-.6.7-1,.9-1.6.9-2.6,1.3-1.8.9-.4.1-.2-.2-.2-.2h-.6l-.3.1-.3.1-.1.1.7,1.4.3.5.4.4.5.3.3.1,2-.3.7-.1.3-.2,1.9-.8v-.1l.8-.3,5.1-1.2,3.8-.8.4-.1h.5l.5.1,1.5,1,.7.5,1.4,1.4-.5.8-1,1.6.2.6.8,3.8-1.2,1-.6,1.1-.1.6,1.3,1.8.3-1.2,2.3-5.1.5-.5,4.6-2.3,1-.2h.6l.6.1,1.2.3,1.7.5,12.4,6.2.7.4,1.5,1,.4.3.5.7.2.5-.1.1.1.3,2,2.2.4.3.2.1.6.2h.6l2.7-.1.4-.1.5-.2.7-.3.5-.3,1.9-1.5.7-.7,1.1-1.4,1.8-1.6,2.5-1.9,1.2-.3,8.2-.4-.3,3.6-.5.8-.1.3.1,2.3.6,6.7.7,5.7v.1l-.1.1-2.6,2.1-.7.5-3.2,2.3-3,2.7-2.6,3.3-.4.4-.5.3-.5.2-2.2-.4-.3-.1-.5-.3-3.2,3.4-.3.3-.2.3-.2.6-.1.5v.3l.1.5.7,1.7.6,1.1.4.6.4.5.2.2.5.3.5.1h2.1l.9-.2h.3l.5.2.4.3.3.4.2.5v.2l-.1,1,.1.8.5.2h.3ZM29.5,10.7l-1.1,2.9-.9,2.6-.3,1.4-.2,2L26.8,22l-.6,9.2v.7l.6,1.3.3.4h.1l.1-.2V33l.2-7.8-.1-.2-.1-.5v-.2l.2-1.5.4-1.4.3-.3,2.1-1.4.6.5.1.2,1.4.8,1.4,1,.5.2h.2L37.2,21l1.7-1.5-.1-.1-.4-.1-.5-.1-2.2.1-.5-.1-.3-.1-1.8-1.6h0l-1.6-1.7-.4-6,1.1-2.3.5-.6,1-.8.1-.1L35,5.7l1.3-.8,1.6-3.1V1.7l-.1-.1L35.7.7,35.1.5h-.3l-.2.1-.5.3L34,1l-.4.7L31.4,6.4l-.4.9Zm8.4,21.4h-.5l-1.9.4-.6.2-.4.3-.5.6-.4.7-.5,1.3-.1.8.1.4.2.3.2.2,4,2,.8.2,1,.1,3.3.1H43l.2-.1,1.9-3.9-.6-2.4-.1-.3-.9-.6L42.4,32l-.5-.1-.3-.1-.7-.1-.8.3-.3.1Zm-11,9.1v.2l.3.8,1.2,2,.6,1,.7,1.1.2.1.4.1h1.2l1.2-.6.1-.1.3-.8v-.1H33l-1.2-.6-1-1.6-1.3-3.5-.1-.7.2-.5.3-.5,1-1-.1-.1-.2-.1-.4.2-2.5,2.2-.3.4L27,40v.8Zm17.2,3.6,3.7-.9.5-.3.3-.4.2-.6.2-1-.2-.1L42.5,44l-1.6.7-.1.4.1.1,1.1.9ZM39.9,50h-.3l-.2.2.1.2.3.4.2.1,1.6,1.2.3.2h.9l.5-.1.1-.2v-.4l-.8-1.2-.1-.2-.1-.1-.3-.1-.7.2Zm5.5,8.7.6.5.3.1H47l1-.2.9-.3.2-.1.3-.4,1.1-2.4.6-1.4.1-1.5-.2-.1-.6-.1-.6.1-2.2.7-.3.1-2.6,1.1-.4.2-.2.3-.1.3v1.1l.1.5.1.3.2.3.1.1ZM60.6,56l-3.1,2-.4.5v2.9l.7.5.6.3.8.2,2.2.2h.9l1.3-1.1.6-.7.1-.1,1.5-2.3v-.2l-.2-1.3-.3-.4-.9-.2-2.2-.1ZM193,55.3l-.5-.2-.2-.2-.1-.2-.2.1-.3.3-.8.9-.6.8-.4.6-.7,1.6-.3,1-.1.3-.3,3.4.1.6.1.2,1.6,1.1.2.1.4.1.1-.1h-.2l-.4-.1-1-.6v-.6l.2-.2,2.3-.8,1.1.3.4.2.4.2.1.3.3.8-.1.9-.1,1.3,5.1.9,7.8.1h.1v-.7L205.7,65l-1-2.2L201.6,58l-3.2-1.7ZM49.2,105.2l-.2-.1-.3-.4-.5-.6v-.4l.1-.5.2-.4.2-.2.2-.2.2-.1.3-.1h.2l.3.3v.1l-.1,2.5-.3.2ZM2,89.2l1.2-.1.1.6-.9,1.5-.7-.1L1.4,91,.5,89.4v-.2l.5-.4.4-.1Z"/></g></g></svg>