<svg xmlns="http://www.w3.org/2000/svg" viewBox="0 0 70.19 54.97"><defs><style>.cls-1{fill:#ffdfba;stroke:#465968;stroke-miterlimit:10;}</style></defs><g id="Ebene_2" data-name="Ebene 2"><g id="Bundesrepublik_Deutschland" data-name="Bundesrepublik Deutschland"><path id="SL" class="cls-1" d="M2.21,7.34l.5.3,7,2.2L11,10l4.4.3,7.1-1.2,4.3-1.2.6-.3,1.3-.8.2-.1.5-.5.2-.3.6-.6.3-.2.8-.4,3-1.2,1.9-.7h.4v-.1l.1-.1.1-.1,3-1.8.4-.1,2,.3.9.2-.1.3-.2.7v.2h.1l1.6-.6.5-.5.6-.6,2.6,1.7,3.3,3,6.1,3.3.8.1.9-.7,1.1-.6.4-.4.2.3.4.7.5,1v.2l.1.8.1,4.4-.5,5.2-1.7.5-.4.3v.1l.2,1,.1.4,2.5,1.7.1.8-.3,1.5v.4l5,2.9.7-.2,1.2-.6.4.4-.6.4-.7,4.3v.1l.6.4-.5,2.3-.6.8-.4.4-.6.3-1.4.7-2.9,1.9-1,1.3v.8l1,3.1.9,1.2,1.8,2.6.2.2.3.2h1l-.5.9-4.4,3.5-.4.2-.7-.2-1-.7-1.2-.5-4.1-.4-.4.1-.7.3-.6.7-.2-.1-.8-.5-.5-.3-1.3-1.2-1-1.7-.8,2.5L46.31,54l-.7.2-.3-.1-.3-.3-.2-.5-.7-3.8-.2-1.4.1-.5-1.2-1.9L40.61,44l-2.3-.8-1.4-.4-4-.5-1.4.9-.1.2.4.4.6.8.6,1.9v.3l-.2.4-.9,1.5-1.7.3-5.5-1-1.2-1.3-.6-1.4,1.4-1.8-.5-1.4-2.1-1.2.1-1.8v-.2l-1.3-3.2L18.61,34l-1.6-.9-.7-.1-.9-1.2-.3-.5-1.4-2.5-.1-.2-1.5-6-.1-.4.1-.3.7-.5.6-.1-.4-.6-.5-.6-.5-.4-4.3-3.3-2.3-.9-1.7.3-.3.2-.7.2-1.3-.1-.5-.6-.4-6.2.1-.2.3-.4Z"/></g></g></svg>