<svg xmlns="http://www.w3.org/2000/svg" viewBox="0 0 203.1 154.9"><defs><style>.cls-1{fill:#ffdfba;stroke:#465968;stroke-miterlimit:10;}</style></defs><g id="Ebene_2" data-name="Ebene 2"><g id="Bundesrepublik_Deutschland" data-name="Bundesrepublik Deutschland"><path id="SN" class="cls-1" d="M73.8,1.5l2.4,3.9.6.3.7-.5.3-.3.2-.3L80.6,6l.4.8,1.9,4.1L84,13.6l.2.7.2.7-.2,5.2-.8,3.7,1.5,1.8.2.6.2.4,2.3.1.5-.1,1.7-.5-.1-1.1V25l2.6-2.3,4.5-2.4.6.5,2.3,2.1,2.1,1.7,4.9,3,2.9.9h.3l2-.1,3.3-.1.5-.7.3.4.8.5.5.1,3.1.4.8-.6,2.1-1,1.6-.6,2.8.1.3-.1,7.5-1.5,2.7-3.5,1.4-5.5,1.5-4.4,2.1-3.1.4-.1,1.3.2,3.1-.1,4,.5,2.9,1,4.3-2.5,3.4-.4.3.2-.1-.5V6.7l.1-.4.4-.3,6.9-2.5,2.2.9.1.7.4.8.1.2.4.1.5.1,3.2-.3.2-.1.5-.5.2-.2.1-.3.6-2.3.8-.8,1,.8-1,2v.2l1.3,3,.4.5,1.1.4.9.2.9.1.9-.1h.2l8.2,3.1.2.1,1.7.9.1.1.4.7,1.3,2.1v.4l-.1,4,4.9,10.4.7,2v2.9l-1.2,2.7-.2,1.2-2,14.3-.2,1.6-.9,1.2-.7,2.5.3.2v.1l-.2,1.1-.7,3.2-1.2,3.7-.3.5-1.5,2-1.4,1.7L191,74.3l-.3,2.4-.4,2.4-.1.7-.3.2-1.4.1H188l-2.1-.4-5.5-2.1-2.1-.8-.1-.8.8-2.4-.8-3.8-2.1-6.2-1.3-1.3-5.3-4.5-.5.4.2.7-.1,1.4-4.8.7-.5.1h-.2L159,59.4l-.2-.1-.2-.2-1-1.1-.2-.2h-.1l-.7.1-.4.5-.3.6L154,64.8l.1.2,3.6,3.2.2.2.4.2,3.5.9.7-.2.4.2.3.2.3.4.1.9-.7,2.5-5.3,1.9-11.2,5.7-2,1.1-1.1,1.4-.6.2-8.4,2.7-.8.1-1.8.1.3.5.2,3.2-.1.4-.3.8-2.5,1.7-.6.2-1.2.2h-.1l-.4-.1-.6-.4-.3-.1-1.9-.4H124l-7,.9-1,.1L108.8,98l.2.5.2.9v.1l-1.8,4.2-.9.6-1.9,2.4-3.9-1.9-2.1-.2-5.9,4.5-3.4,3.7.1.7L87.5,118l-1.5.3-3.1-1-5.5.5-.6.2-.2.1v.2l-.4,2.1-.1,2.1.1.7.2.4v.5h0l-.1.4-.2.4-2,2.5-.4.3L71.6,129l-.7-.3L68,126.8l-4.2-2.7-.7-.4H63l-5.3,3.2L54,129l-1.1.1-5,.6-4.5,1.2L36,140.2l-2.1,3.1L32,147.1l-.2.8-.3,2.8.2.5.1.1.2.1.2.2.4.7-.2,1.9-.3.2h-.8l-.8-.1-1-.2-.2-.1-.1-.1-.8-1.3-.3-.6v-.3l.5-.2.2-.1.2-.8-.2-1.6L23,140.6l-1.1-1.3H19.4l-2.7.1-.4.3-.5-.6-2-.8L9.3,137l-1.2-.2-.4-.3.3-1.8.2-1.7v-.4L5.6,130l-.7-.6-.9-.2-1.6-1.1-.5-.5-.1-.2.4-.7.6-.5,1.6-.9,1.8-1.7.3-.5v-.3l-.2-.5-2-1.9-.8-.8-1.1.1H1.5l-.3-.5-.7-1.8v-.1l.1-.3,3.1-4.4.4-.2.7-.3L5,112l2.2-2.3.1-.8,1.3-1.2.1-.1.4-.1.8.8.4,3.1.7,2.8,4-.2,2.5.3,1.2-.8.4.1.8-.1.2-.1.1-.1.1-.5-.2-.4h-.8l-.4.3-2-.6.3-.8.2-.1.5-.2,3.2-1.4,3.6-1.6h.1l1.9-.4,2-2.1.1-.1,1.1-1.4.2-1.3-3-.8-.8-.8-2.5-4.4v-.8l.1-1,.8-5.4.5-1,.6.7,1.3.1,4.4-1.6V86.2l1.6-1.3.3-.1H35l.6.2.6.7v.1l1.3-.4.2-.1.9-2.6V81.5l1.5-1.2.3-.1,3.2-.8,1.9-.3.6.1,1.4-.3,2.8-.9.8-1.2-.5-.4-.3-.3L49.6,75l-.1-.3-.6-2.3-.3-1.6-2.4-.6-2.4-.9-2.5-1.9L41,65.6l.1-1.2.1-.7-.2-.9-.2-.3-.4-.2-2.9-1.1-7.7-2.4h-.1l-3,1.5-1.4-1-2.3-2,.7-.6.1-.4-.5-.6-.3-.2-2-.4V47.9l-.4-2.4v-.3l-.4-1.9-1.3-1.8L17.2,37l1.6-.9,1.3-.5L19.9,34l-1-5.5-.2-.7v-.1l-.1-.1-1-3.4-.4-1.4,2.4-5.3.2-2.4L23.3,12l5.3-2.8.7-.1L31.8,9l2.3-.2,7.5-2.2,2-1,.3-1.1,2,1.4,1.6-.8.8-.6.8-.6.2-.2L50,1.8l.1-.6.1-.2.3-.3.4-.2h1l.5.1.3.1,1,.4.7.5.1.1.9.4,9.5-.2H65l6.6-.3Z"/></g></g></svg>