<svg xmlns="http://www.w3.org/2000/svg" viewBox="0 0 168.11 216.65"><defs><style>.cls-1{fill:#ffdfba;stroke:#465968;stroke-miterlimit:10;}</style></defs><g id="Ebene_2" data-name="Ebene 2"><g id="Bundesrepublik_Deutschland" data-name="Bundesrepublik Deutschland"><path id="ST" class="cls-1" d="M63.91,1.55l1.4-.6h.8l.2.1.2.1.2.2.1.2v.2l-.1.2-.9,1.2-.1.3.1.4.1.3.2.3,3.6,2.8.2.1.5.1.3-.1.7-.5,1-.6h.2l.5.1.4.1.4.2.2.1,5.2,3,.2.3.1.3v.5l-.1.3-.1.2-.5.5-.5.6-.2.4-.1.2.1.5.3.5.2.2.3.2,3.6,1.5,5.2,1.7.3.1,8.2-1,.7-.7-.1.2-.3.6v.7l.8,2,1.6-.5.9-.5,1.5-.7,1.5.7.6.4.1.3,1.2,4.9-.2,1.8-1.5.7-.7,1.3-.3,1.1-.4,4.4v.1l1.2,2,1.2,1.8.3.9v.6l-.4,3.7-1.6,1.2H102l-.4-.1-.9,1.6-1.8,7.1v.8h0l1.8,2.2.9,1,1.2-.2,1.1-.3.3-.5v-.1l.2-.9,5.5,1.9.4,3.3-.3.9-.6,1-.9,2.2.2,1.6.4,2.9.7,3.4-1.2,2.4-.2.1-.1.2-1.2,2.6-.6,1.8-.1.5-.3,2.5.2,4-1.8,4.1,2.9,3.8,2.1,3.2,2.6,3.4,1.7,1.9,4.6,2.9,7.2,2.8,4,.6.8-.1,1.8-1.3.2-1.4.4-.6h.9l2,.9.7.4,1.6.9,1.8.9h.3l.5,1.4,4.9,2.8,2.4.6h.5l1.1-.4,4.9,2.6,3,3.1.3.2h.2l2.4.2,2.1-.8.3-.2-.1-.7h.9l.4.3.7.7.1.6v.6l-1.7.3v.5l3.3,11.7.5.4.3.3.5.9v.6l-1.4,2.5-.5.6-6.5,4.3-2.2.3-6.6.3h.5l-9.5.2-.9-.3-.1-.1-.7-.5-1-.4-.3-.1-.5-.1h-1l-.4.2-.3.3-.1.2-.2.6-.7,1.9-.2.2-.8.6-.8.6-1.6.8-2-1.4-.3,1.1-2,1-7.5,2.2-2.3.2-2.5.1-.7.1-5.3,2.8-3.5,3.1-.2,2.4-2.4,5.3.4,1.4,1,3.4.1.1v.1l.2.7,1,5.5.2,1.6-1.3.5-1.6.9,1.7,4.5,1.3,1.8.4,1.9v.3l.4,2.4v7.2l2,.4.3.2.5.6-.1.4-.7.6,2.3,2,1.4,1-1.6,2.5.3,1.7,1.3,1,.4.2.5.6v1l-.1.3-3.2,6.9-.7.9-.2.1-.6.4h0l-.3-1.1-.4-.8-1.4-1.8-.1-.1-.7.5-.3.3-.2.3.1.7-1.1-.5-3.6-1.2h-.2l-3.2.5-.3.1-1,.4v-1.1l-.2-.5-2.3-3-.3-.2-2.2-1.6-3.5-2.2-.8-.3-2,.5-2.8.6-1.8-.5-4.8-1.5-.1-.6-.2-1.3-.3-1.2-1.6-1-6.3-1-.2.2-.3.8-.3.2-.8.7-3.9.1-.1-.3-.9-.4-.5-.4-.8-3.4,1.3-.2.3-.5.5-1.2v-.3l-1.1-2.5-1.6-1.6-.9-.4h-.2l-.9.4h-1.6l-1.6-1.2.1-.8.6-1,.3-.5.2-.2h.2l.8.9h.1l.5-.2.3-.2.5-.6.8-1.2,1.5-2.1.7-1.1.4-.7.1-.1v-.3l-.5-.5-1.3-1.2-.4-.2-.3-.1-.7-.6-.5-.6v-.1l.1-.1.5-.5-1.8-.6v-.4l-.6-1,.3-1.9v-.3l-.2-.3-4.2-1.6-2.8-.1-.7.1h-1.4l-6.4-.1-.5-.1-6.4-2-.6.3-1.2.4-.8.1-.8-.1-.9-1-.8-.5.1-2.7.1-2.4-1-1.2-1.7-2.6-2.1-3.3-1.2-2.9.5-1.6,1.7-2.2-1.3.5-2-1.8-.4-.3-2.9-.7-1.9-.2-3.4-.3-1.8.4-.4-.1-.1-.1-.3-.4-1.3-2-.1-.4-.2-1.3-.1-.9.2-.5-.9-2.2-3-4.5-1-.6-.7-1.5-.3-2.8v-3.5l.1-.5.4-.5,2.1-1.8.4-.2h.4l.2-.1,1-1.6.1-.3v-.7l-.1-.7-.1-.3-.5-.6-.8-.3-.9-.3v-1.8l.8-1.1,1.3-.4-3.7-2.8-1.7-2.4,4.2-.4,1.8-1.7.1-.1v-.3l-.2-.4.1-1,1.9-.6,1-.2,5-.1h.3l.9.2,1.8-.1,1.4-.3.4-.1.9-.7.5-.1,3.4-.1,1.7.2.1.1.3-3.1.4-1.9,2-1.4,1.9-1.5,1.2-1.8.2-.3.1-1.5-.1-.4-.1-.1h-.2l-1-.2h-.5l-.7-.4-.4-.3-.2-.2-.1-.3-.1-.4.1-.8.4-1,.3-.5.3-.2,1-.5.7-.2,1.1-.2.6-.8v-.2l-.4-1-1.4-2-1.4-1.4-1.4-1.6-.1-.1-.4-4.1,1.2-1.7.6.1.2-.1,1.1-.5.8-.6.1-.2v-1.4l-.1-.4-.6-.6-.8-.7-.2-.1-.3-.1-1.3-.8-4.5-5.8-.9-1.8.6-1.6,2.2-1.2,1.7.1-1.8-2.1L25,53.35l-.8-1.3-.3-.8-.3-1.4.2-2.2h0L21,42.25,17.31,37l-2.6-1.9-2.6-7.2.1-.6.1-.6-.2-2.3v-.2l.5-2.2,2.1-.6,2.7-.6,6.1-.2,2.9-3.1.2-.4v-.2l-.1-.5v-.8l.2-.7.3-.4.3-.1h.3l9.3.4,3.9.8.7.8.3.3.1.3v.4l.1.1.3.1,3.2.3,1.1-.3,5.7-2.8.1-.2.9-1.2,1.8-1.7,1.1-.6,1.2-.3h.9l-.8-1.9.6-3.2.2-1,.3-.7.8-.2h.1l.4.5.6.4.7.1v-.1l2.5-3.6.2.5Z"/></g></g></svg>