<svg xmlns="http://www.w3.org/2000/svg" viewBox="0 0 181.07 149"><defs><style>.cls-1{fill:#ffdfba;stroke:#465968;stroke-miterlimit:10;}</style></defs><g id="Ebene_2" data-name="Ebene 2"><g id="Bundesrepublik_Deutschland" data-name="Bundesrepublik Deutschland"><path id="TH" class="cls-1" d="M53.5.9,55.3.5l3.4.3,1.9.2,2.9.7.4.3,2,1.8,1.3-.5L65.5,5.5,65,7.1,66.2,10l2.1,3.3L70,15.9l1,1.2-.1,2.4-.1,2.7.8.5.9,1,.8.1.8-.1,1.2-.4.6-.3,6.4,2,.5.1,6.4.1h1.4l.7-.1,2.8.1,4.2,1.6.2.3v.3l-.3,1.9.5,1v.4l1.8.6-.5.5-.1.1V32l.5.6.7.6.3.1.4.2,1.3,1.2.5.5v.3l-.1.1-.4.7-.7,1.1-1.5,2.1-.8,1.2-.5.6-.3.2-.5.2h-.1l-.8-.9h-.2l-.2.21-.3.5-.6,1-.1.79,1.6,1.21h1.6l.9-.4h.2l.9.4,1.6,1.6,1.1,2.5v.3l-.5,1.2-.3.5-1.3.2.8,3.4.5.4.9.4.1.29,3.9-.1.8-.7.3-.2.3-.8.2-.2,6.3,1,1.6,1,.3,1.2.2,1.3.1.6,4.8,1.5,1.8.5,2.8-.6,2-.5.8.3,3.5,2.2,2.2,1.6.3.2,2.3,3,.2.5v1.1l1-.4.3-.1,3.2-.5h.2l3.6,1.21,1.1.5-.1-.71.2-.29.3-.3.7-.5.1.1,1.4,1.8.4.79.3,1.11h0l.6-.4.2-.1.7-.9,3.2-6.9.1-.3v-1l-.5-.6-.4-.2-1.3-1-.2-1.71,1.6-2.5,3-1.5h.1l7.7,2.4,2.9,1.1.4.21.2.29.2.9-.1.71-.1,1.2.3,1.8,2.5,1.89,2.4.9,2.4.6.3,1.61.6,2.29.1.3.7,1.1.3.3.5.4-.8,1.2-2.8.9-1.4.3-.6-.1-1.9.3-3.2.8-.3.1-1.5,1.2v1.2l-.9,2.6-.2.1-1.3.4v-.1l-.6-.7-.6-.2h-1.6l-.3.1-1.6,1.3v1.5l-4.4,1.6-1.3-.1-.6-.7-.5,1-.8,5.4-.1,1v.8l2.5,4.4.8.8,3,.8-.2,1.3-1.1,1.4-.1.1-2,2.1-1.9.4H154l-3.6,1.6-3.2,1.4-.5.2-.2.1-.3.8,2,.6.4-.3h.8l.2.4-.1.5-.1.1-.2.1-.8.1-.4-.1-1.2.8-2.5-.3-4,.2.5-2.8-.4-3.1-.8-.8-.4.1-.1.1-1.3,1.2-.1.8-2.2,2.3-.2.1-.7.3-.4.2-3.1,4.4-.1.3v.1l.7,1.8.3.5h.9l1.1-.1.8.8,2,1.9.2.5v.3l-.3.5-1.8,1.7-1.6.9-.6.5-.4.7.1.2.5.5,1.6,1.1-2.7,1.2-4.1,1.5-12.5,1.7H115l-.3-.2-.6-.5-.4-.5-.3-.2-.4-.2-1.3.3-.2.1-.2.3-.2.8v.2l-.4.4-1.9.6-.6-.3-1.7-1.9-.7-1.2-.5-2.2-1.8.2-2-1.2-.1-.2-.1-.6v-2.1l.1-1.6.4-.7h.4l.1-.1.3-.7V117l-.6-.8-.3-.5-.3-.2-3.5-.7-1.6.2-.2.1L95,116.3l-.2.8-2.2,1.8-1.5.7-.1-.2-.5-.1-.4.1-.2.3-.1.6v.2l.1,2.1.7.5.4.2.3.8,1.2,7.6v.1l-2,6.9-3.1.5-.9,1.9-.1.1h-.8l-2.2-2.1-.7-1V138l-.1-.5.1-.6.4-.5.3-.3.6-.4.4-.1V135L83,132.6l-1.6-1.4h-.9l-.7.2-.1.1-.4,1.2-1.2.5-1.4.5-.4-.1-3.6-.6-1.3-1.5-1.1-2-.5-.6h-7L55.3,132l-.2.9.2,3.1.1.4.4.3,5.5,3.9.2.1.6.1,1.3.4.6.3.4.5.1,1.4-.2.6-.1.2-.7.5-.7.2h-.3l-2.8-.6-2.4-.6-.6-.1-.3.2-.1.2v1.7l.1.1.1,1.8-.4.8-.2.1h-.3l-5.2-1.9-1.8-.5-.2-.4-.4-1.2-.7-2.9.3-3.6.3-2.8-3-.7-4-1.5-2.3-2.5-.3-1.2-.3-1-.9.4-.9.4-1.9-.2h-.2l-.5-.8v-.6l-.4-2.4-2.4-5.2-.5-.5-.5-.4-4.7-2-1.5-2-1.8-2.4-.5-.1-6.6.7-1.8,2-1,1-.4.2-.3.1-.2-9.7.2-.4.4-.6.2-.2,1.8-1.5-.7-2.1-.8-1.4-.3-.2-1.3-.1-2.2-.1-.5.1-2.4,1-.2.3v.6l1.2,1.5-.5,1.2-.9.2-1.1-.2-3.3-.6-.1-.9.1-2.7.3-.4.7-1L3,97.6l1.3-2.7.5-1.2v-.3l-.2-1.5-.9-1.1L5,90.4l.3-.1.1-.1v-.5l-.1-1L4.9,88v-.6l.4-1.8.1-.3,1.1-.9.5-.3,1.6.2H10l.7-1.2L12.3,79v-.8l-1-5.9L9.8,67.5l.6-1.3.1-.3.1-.1.3-.1.9-.1,1.4.1,2.3.3,1.3.7.3.4.3.2.5.1.4-.1,1.7-.2.2-.2h.2l.5-.2.3-.2.5-.7-.1-.2.6-1.2.2-.5-.5-.9-.5-.5-.2-.2-.9-.6L18.5,61l-.2-4.3-.6-1.2-1.3-2.9-.1-.3.5-.6,2.6-.6,1.1,1.1.4,1.3.3.4h0l.4.7h.6l.2-.2V51.8h-.2l-.4-.5V51l.4-1.3.3-.3.4-.2.6-.4.3-.8-.3-.6-1.2-.3L21,45.8l-.6-.5-.8-.5-1.7-.6-4.6-2.3L12.4,39l-1.9-.8L7.1,37,5.9,35.5,4.5,32.2,3.9,30l-.1-1,.2-.9.2.1.2-.1.5-.2L8,25.8l6.7-3.9L20,20.8l8-5.4,2.6-2.1.1-.1,1.5-2.3.1-.3.2-.8V9.7l-.4-.2L33,7.6l.7-1.2,2.4-.6h.2l.8.3,1.5.7L39,7l.7.5.4.3,1.2,1.8.6.3,2.4-.3,4.6-1.2.9-1.8,2.1-5.5h.3L53.5.9Z"/></g></g></svg>